%TF.GenerationSoftware,KiCad,Pcbnew,9.0.6*%
%TF.CreationDate,2025-12-21T01:05:23-07:00*%
%TF.ProjectId,PingPongLevitator_PCB_FINAL,50696e67-506f-46e6-974c-657669746174,rev?*%
%TF.SameCoordinates,Original*%
%TF.FileFunction,Copper,L2,Bot*%
%TF.FilePolarity,Positive*%
%FSLAX46Y46*%
G04 Gerber Fmt 4.6, Leading zero omitted, Abs format (unit mm)*
G04 Created by KiCad (PCBNEW 9.0.6) date 2025-12-21 01:05:23*
%MOMM*%
%LPD*%
G01*
G04 APERTURE LIST*
%TA.AperFunction,ComponentPad*%
%ADD10R,2.000000X2.000000*%
%TD*%
%TA.AperFunction,Conductor*%
%ADD11C,1.000000*%
%TD*%
G04 APERTURE END LIST*
D10*
%TO.P,R4,1*%
%TO.N,+5C*%
X55000000Y-146420000D03*
%TO.P,R4,2*%
%TO.N,Net-(Pot_Kd1-Pin_1)*%
X55000000Y-156580000D03*
%TD*%
%TO.P,R3,1*%
%TO.N,+5C*%
X49333333Y-146420000D03*
%TO.P,R3,2*%
%TO.N,Net-(Pot_Ki1-Pin_1)*%
X49333333Y-156580000D03*
%TD*%
%TO.P,R2,1*%
%TO.N,+5C*%
X43666667Y-146420000D03*
%TO.P,R2,2*%
%TO.N,Net-(Pot_Kp1-Pin_1)*%
X43666667Y-156580000D03*
%TD*%
%TO.P,R1,1*%
%TO.N,+5C*%
X38000000Y-146420000D03*
%TO.P,R1,2*%
%TO.N,Net-(Pot_Height1-Pin_1)*%
X38000000Y-156580000D03*
%TD*%
%TO.P,A1,VIN,VIN*%
%TO.N,unconnected-(A1-PadVIN)*%
X60477700Y-140973700D03*
%TO.P,A1,RST,RST*%
%TO.N,unconnected-(A1-PadRST)*%
X60477700Y-128273690D03*
%TO.P,A1,P1,P1*%
%TO.N,unconnected-(A1-PadP1)*%
X60477700Y-123193690D03*
%TO.P,A1,IOREF,IOREF*%
%TO.N,unconnected-(A1-PadIOREF)*%
X60477700Y-125733690D03*
%TO.P,A1,GND_3,GND_3*%
%TO.N,GND*%
X108737700Y-121669690D03*
%TO.P,A1,GND_2,GND_2*%
X60477700Y-135893690D03*
%TO.P,A1,GND_1,GND_1*%
%TO.N,unconnected-(A1-PadGND_1)*%
X60477700Y-138433690D03*
%TO.P,A1,D13,D13*%
%TO.N,unconnected-(A1-PadD13)*%
X108737700Y-124209690D03*
%TO.P,A1,D12,D12*%
%TO.N,unconnected-(A1-PadD12)*%
X108737700Y-126749690D03*
%TO.P,A1,D11,D11*%
%TO.N,unconnected-(A1-PadD11)*%
X108737700Y-129289691D03*
%TO.P,A1,D10,D10*%
%TO.N,Net-(DRV1-In2)*%
X108737700Y-131829690D03*
%TO.P,A1,D9,D9*%
%TO.N,Net-(DRV1-In1)*%
X108737700Y-134369690D03*
%TO.P,A1,D8,D8*%
%TO.N,unconnected-(A1-PadD8)*%
X108737700Y-136909690D03*
%TO.P,A1,D7,D7*%
%TO.N,unconnected-(A1-PadD7)*%
X108737700Y-140973700D03*
%TO.P,A1,D6,D6*%
%TO.N,unconnected-(A1-PadD6)*%
X108737700Y-143513700D03*
%TO.P,A1,D5,D5*%
%TO.N,unconnected-(A1-PadD5)*%
X108737700Y-146053700D03*
%TO.P,A1,D4,D4*%
%TO.N,unconnected-(A1-PadD4)*%
X108737700Y-148593700D03*
%TO.P,A1,D3,D3*%
%TO.N,Net-(HCSR04-Pin_2)*%
X108737700Y-151133700D03*
%TO.P,A1,D2,D2*%
%TO.N,Net-(HCSR04-Pin_3)*%
X108737700Y-153673700D03*
%TO.P,A1,D1,D1*%
%TO.N,unconnected-(A1-PadD1)*%
X108737700Y-156213700D03*
%TO.P,A1,D0,D0*%
%TO.N,unconnected-(A1-PadD0)*%
X108737700Y-158753700D03*
%TO.P,A1,AREF,AREF*%
%TO.N,unconnected-(A1-PadAREF)*%
X108737700Y-119129700D03*
%TO.P,A1,A5_SCL,AD5_SCL*%
%TO.N,unconnected-(A1D-AD5_SCL-PadA5_SCL)*%
X108737700Y-114049700D03*
%TO.P,A1,A5,A5*%
%TO.N,Net-(Pot_Kd1-Pin_1)*%
X60477700Y-158753700D03*
%TO.P,A1,A4_SDA,AD4_SDA*%
%TO.N,unconnected-(A1D-AD4_SDA-PadA4_SDA)*%
X108737700Y-116589700D03*
%TO.P,A1,A4,A4*%
%TO.N,Net-(Pot_Ki1-Pin_1)*%
X60477700Y-156213700D03*
%TO.P,A1,A3,A3*%
%TO.N,Net-(Pot_Kp1-Pin_1)*%
X60477700Y-153673700D03*
%TO.P,A1,A2,A2*%
%TO.N,Net-(Pot_Height1-Pin_1)*%
X60477700Y-151133700D03*
%TO.P,A1,A1,A1*%
%TO.N,unconnected-(A1-PadA1)*%
X60477700Y-148593700D03*
%TO.P,A1,A0,A0*%
%TO.N,unconnected-(A1-PadA0)*%
X60477700Y-146053700D03*
%TO.P,A1,5V,5V*%
%TO.N,+5C*%
X60477700Y-133353690D03*
%TO.P,A1,3V3,3V3*%
%TO.N,unconnected-(A1-Pad3V3)*%
X60477700Y-130813690D03*
%TD*%
%TO.P,HCSR04,4,Pin_4*%
%TO.N,+5C*%
X121000000Y-114906000D03*
%TO.P,HCSR04,3,Pin_3*%
%TO.N,Net-(HCSR04-Pin_3)*%
X118460000Y-114906000D03*
%TO.P,HCSR04,2,Pin_2*%
%TO.N,Net-(HCSR04-Pin_2)*%
X115920000Y-114906000D03*
%TO.P,HCSR04,1,Pin_1*%
%TO.N,GND*%
X113380000Y-114906000D03*
%TD*%
%TO.P,DRV1,1,In2*%
%TO.N,Net-(DRV1-In2)*%
X40190000Y-139780000D03*
%TO.P,DRV1,2,In1*%
%TO.N,Net-(DRV1-In1)*%
X42730000Y-139780000D03*
%TO.P,DRV1,3,Vm*%
%TO.N,unconnected-(DRV1-Vm-Pad3)*%
X45270000Y-139780000D03*
%TO.P,DRV1,4,GND*%
%TO.N,GND*%
X47810000Y-139780000D03*
%TO.P,DRV1,5,PW_-*%
%TO.N,Net-(DRV1-PW_-)*%
X50070600Y-122000000D03*
%TO.P,DRV1,6,PW_+*%
%TO.N,Net-(DRV1-PW_+)*%
X46565400Y-122000000D03*
%TO.P,DRV1,7,Out_1*%
%TO.N,Net-(DRV1-Out_1)*%
X41434600Y-122000000D03*
%TO.P,DRV1,8,Out_2*%
%TO.N,Net-(DRV1-Out_2)*%
X37929400Y-122000000D03*
%TD*%
%TO.P,Pot_Ki1,1,Pin_1*%
%TO.N,Net-(Pot_Ki1-Pin_1)*%
X49775000Y-160459000D03*
%TO.P,Pot_Ki1,2,Pin_2*%
%TO.N,GND*%
X47235000Y-160459000D03*
%TD*%
%TO.P,Pot_Kp1,2,Pin_2*%
%TO.N,GND*%
X41135000Y-160459000D03*
%TO.P,Pot_Kp1,1,Pin_1*%
%TO.N,Net-(Pot_Kp1-Pin_1)*%
X43675000Y-160459000D03*
%TD*%
%TO.P,FAN1,1,Pin_1*%
%TO.N,Net-(DRV1-Out_2)*%
X37460000Y-116000000D03*
%TO.P,FAN1,2,Pin_2*%
%TO.N,Net-(DRV1-Out_1)*%
X40000000Y-116000000D03*
%TD*%
%TO.P,Pot_Kd1,1,Pin_1*%
%TO.N,Net-(Pot_Kd1-Pin_1)*%
X55875000Y-160459000D03*
%TO.P,Pot_Kd1,2,Pin_2*%
%TO.N,GND*%
X53335000Y-160459000D03*
%TD*%
%TO.P,JPw_12v_+1,1,Pin_1*%
%TO.N,Net-(DRV1-PW_+)*%
X47500000Y-116000000D03*
%TD*%
%TO.P,Pw_12v_-1,1,Pin_1*%
%TO.N,Net-(DRV1-PW_-)*%
X53500000Y-116000000D03*
%TD*%
%TO.P,Pot_Height1,1,Pin_1*%
%TO.N,Net-(Pot_Height1-Pin_1)*%
X37575000Y-160459000D03*
%TO.P,Pot_Height1,2,Pin_2*%
%TO.N,GND*%
X35035000Y-160459000D03*
%TD*%
D11*
%TO.N,Net-(DRV1-In1)*%
X42730000Y-139780000D02*
X42730000Y-134270000D01*
X56800000Y-126200000D02*
X56800000Y-120900000D01*
X56800000Y-120900000D02*
X91000000Y-120900000D01*
X42730000Y-134270000D02*
X48000000Y-129000000D01*
X48000000Y-129000000D02*
X54000000Y-129000000D01*
X54000000Y-129000000D02*
X56800000Y-126200000D01*
X91000000Y-120900000D02*
X104469690Y-134369690D01*
X104469690Y-134369690D02*
X108737700Y-134369690D01*
%TO.N,Net-(DRV1-In2)*%
X40190000Y-139780000D02*
X40190000Y-133310000D01*
X40190000Y-133310000D02*
X47000000Y-126500000D01*
X47000000Y-126500000D02*
X52000000Y-126500000D01*
X52000000Y-126500000D02*
X53500000Y-125000000D01*
X53500000Y-125000000D02*
X53500000Y-118400000D01*
X53500000Y-118400000D02*
X93400000Y-118400000D01*
X93400000Y-118400000D02*
X106829690Y-131829690D01*
X106829690Y-131829690D02*
X108737700Y-131829690D01*
%TO.N,Net-(Pot_Height1-Pin_1)*%
X38000000Y-156580000D02*
X38000000Y-152400000D01*
X38000000Y-152400000D02*
X39266300Y-151133700D01*
X39266300Y-151133700D02*
X60477700Y-151133700D01*
%TO.N,Net-(Pot_Kp1-Pin_1)*%
X43666667Y-156580000D02*
X43666667Y-154333333D01*
X43666667Y-154333333D02*
X44300000Y-153700000D01*
X44300000Y-153700000D02*
X60451400Y-153700000D01*
X60451400Y-153700000D02*
X60477700Y-153673700D01*
%TO.N,Net-(HCSR04-Pin_2)*%
X115920000Y-114906000D02*
X115920000Y-145880000D01*
X115920000Y-145880000D02*
X110666300Y-151133700D01*
X110666300Y-151133700D02*
X110500000Y-151133700D01*
X110500000Y-151133700D02*
X108737700Y-151133700D01*
%TO.N,Net-(Pot_Ki1-Pin_1)*%
X60477700Y-156213700D02*
X62813700Y-156213700D01*
X62813700Y-156213700D02*
X63400000Y-156800000D01*
X63400000Y-156800000D02*
X63400000Y-163200000D01*
X63400000Y-163200000D02*
X63300000Y-163300000D01*
X63300000Y-163300000D02*
X50500000Y-163300000D01*
X50500000Y-163300000D02*
X49775000Y-162575000D01*
X49775000Y-162575000D02*
X49775000Y-160459000D01*
%TO.N,Net-(Pot_Kd1-Pin_1)*%
X55875000Y-157455000D02*
X55875000Y-158700000D01*
X60477700Y-158753700D02*
X55928700Y-158753700D01*
X55928700Y-158753700D02*
X55875000Y-158700000D01*
X55000000Y-156580000D02*
X55875000Y-157455000D01*
X55875000Y-158700000D02*
X55875000Y-160459000D01*
%TO.N,Net-(Pot_Ki1-Pin_1)*%
X49333333Y-156580000D02*
X49333333Y-160017333D01*
X49333333Y-160017333D02*
X49775000Y-160459000D01*
%TO.N,Net-(Pot_Kp1-Pin_1)*%
X43666667Y-156580000D02*
X43666667Y-160450667D01*
X43666667Y-160450667D02*
X43675000Y-160459000D01*
%TO.N,Net-(Pot_Height1-Pin_1)*%
X38000000Y-156580000D02*
X38000000Y-160034000D01*
X38000000Y-160034000D02*
X37575000Y-160459000D01*
%TO.N,+5C*%
X121000000Y-114906000D02*
X121000000Y-152500000D01*
X121000000Y-152500000D02*
X112000000Y-161500000D01*
X112000000Y-161500000D02*
X90624010Y-161500000D01*
X90624010Y-161500000D02*
X62477700Y-133353690D01*
X62477700Y-133353690D02*
X60477700Y-133353690D01*
%TO.N,Net-(HCSR04-Pin_3)*%
X118460000Y-114906000D02*
X118460000Y-145951400D01*
X118460000Y-145951400D02*
X110737700Y-153673700D01*
%TO.N,Net-(HCSR04-Pin_2)*%
X110737700Y-151133700D02*
X110500000Y-151133700D01*
%TO.N,Net-(Pot_Kd1-Pin_1)*%
X60224000Y-158500000D02*
X60477700Y-158753700D01*
%TO.N,+5C*%
X43666667Y-146420000D02*
X38000000Y-146420000D01*
X49333333Y-146420000D02*
X43666667Y-146420000D01*
X55000000Y-146420000D02*
X49333333Y-146420000D01*
X60477700Y-133353690D02*
X58477700Y-133353690D01*
X58477700Y-133353690D02*
X55000000Y-136831390D01*
X55000000Y-136831390D02*
X55000000Y-146420000D01*
%TO.N,Net-(DRV1-PW_+)*%
X47500000Y-116000000D02*
X46565400Y-116934600D01*
X46565400Y-116934600D02*
X46565400Y-122000000D01*
%TO.N,Net-(DRV1-PW_-)*%
X53500000Y-116000000D02*
X51500000Y-116000000D01*
X51500000Y-116000000D02*
X50070600Y-117429400D01*
X50070600Y-117429400D02*
X50070600Y-122000000D01*
%TO.N,Net-(DRV1-Out_1)*%
X40000000Y-116000000D02*
X41434600Y-117434600D01*
X41434600Y-117434600D02*
X41434600Y-122000000D01*
%TO.N,Net-(DRV1-Out_2)*%
X37460000Y-116000000D02*
X37460000Y-121530600D01*
X37460000Y-121530600D02*
X37929400Y-122000000D01*
%TO.N,Net-(HCSR04-Pin_3)*%
X110737700Y-153673700D02*
X108737700Y-153673700D01*
%TO.N,Net-(DRV1-In1)*%
X106737700Y-134369690D02*
X108737700Y-134369690D01*
%TO.N,Net-(Pot_Ki1-Pin_1)*%
X60194300Y-156612700D02*
X60887300Y-156612700D01*
%TO.N,Net-(DRV1-PW_+)*%
X47500000Y-116000000D02*
X47500000Y-116268400D01*
X47500000Y-116268400D02*
X47510800Y-116279200D01*
%TD*%
%TA.AperFunction,Conductor*%
%TO.N,GND*%
G36*
X107288827Y-112504294D02*
G01*
X107302263Y-112503334D01*
X107321699Y-112513947D01*
X107342943Y-112520185D01*
X107351761Y-112530362D01*
X107363586Y-112536819D01*
X107374199Y-112556256D01*
X107388698Y-112572989D01*
X107390614Y-112586320D01*
X107397070Y-112598143D01*
X107395490Y-112620227D01*
X107398642Y-112642147D01*
X107392937Y-112655918D01*
X107392085Y-112667835D01*
X107375170Y-112698811D01*
X107293906Y-112807364D01*
X107293902Y-112807371D01*
X107243608Y-112942217D01*
X107237201Y-113001816D01*
X107237201Y-113001823D01*
X107237200Y-113001835D01*
X107237200Y-115097570D01*
X107237201Y-115097576D01*
X107243608Y-115157183D01*
X107288061Y-115276367D01*
X107293045Y-115346059D01*
X107288061Y-115363033D01*
X107243608Y-115482217D01*
X107237201Y-115541816D01*
X107237201Y-115541823D01*
X107237200Y-115541835D01*
X107237200Y-117637570D01*
X107237201Y-117637576D01*
X107243608Y-117697183D01*
X107288061Y-117816367D01*
X107293045Y-117886059D01*
X107288061Y-117903033D01*
X107243608Y-118022217D01*
X107237201Y-118081816D01*
X107237201Y-118081823D01*
X107237200Y-118081835D01*
X107237200Y-120177570D01*
X107237201Y-120177576D01*
X107243608Y-120237183D01*
X107293902Y-120372028D01*
X107293906Y-120372035D01*
X107380152Y-120487244D01*
X107380155Y-120487247D01*
X107495364Y-120573493D01*
X107495371Y-120573497D01*
X107630217Y-120623791D01*
X107630216Y-120623791D01*
X107637144Y-120624535D01*
X107689827Y-120630200D01*
X109785572Y-120630199D01*
X109845183Y-120623791D01*
X109980031Y-120573496D01*
X110095246Y-120487246D01*
X110181496Y-120372031D01*
X110231791Y-120237183D01*
X110238200Y-120177573D01*
X110238199Y-118081828D01*
X110231791Y-118022217D01*
X110187337Y-117903032D01*
X110182354Y-117833342D01*
X110187338Y-117816367D01*
X110231791Y-117697183D01*
X110238200Y-117637573D01*
X110238199Y-115541828D01*
X110231791Y-115482217D01*
X110187337Y-115363032D01*
X110182354Y-115293342D01*
X110187338Y-115276367D01*
X110231791Y-115157183D01*
X110238200Y-115097573D01*
X110238199Y-113001828D01*
X110231791Y-112942217D01*
X110181496Y-112807369D01*
X110181495Y-112807368D01*
X110181493Y-112807364D01*
X110100230Y-112698811D01*
X110075812Y-112633347D01*
X110090663Y-112565074D01*
X110140068Y-112515668D01*
X110199496Y-112500500D01*
X122875500Y-112500500D01*
X122942539Y-112520185D01*
X122988294Y-112572989D01*
X122999500Y-112624500D01*
X122999500Y-165875500D01*
X122979815Y-165942539D01*
X122927011Y-165988294D01*
X122875500Y-165999500D01*
X34124500Y-165999500D01*
X34057461Y-165979815D01*
X34011706Y-165927011D01*
X34000500Y-165875500D01*
X34000500Y-159411135D01*
X36074500Y-159411135D01*
X36074500Y-161506870D01*
X36074501Y-161506876D01*
X36080908Y-161566483D01*
X36131202Y-161701328D01*
X36131206Y-161701335D01*
X36217452Y-161816544D01*
X36217455Y-161816547D01*
X36332664Y-161902793D01*
X36332671Y-161902797D01*
X36467517Y-161953091D01*
X36467516Y-161953091D01*
X36474444Y-161953835D01*
X36527127Y-161959500D01*
X38622872Y-161959499D01*
X38682483Y-161953091D01*
X38817331Y-161902796D01*
X38932546Y-161816546D01*
X39018796Y-161701331D01*
X39069091Y-161566483D01*
X39075500Y-161506873D01*
X39075499Y-159411128D01*
X39069091Y-159351517D01*
X39018796Y-159216669D01*
X39018793Y-159216666D01*
X39015667Y-159210939D01*
X39000500Y-159151513D01*
X39000500Y-158196976D01*
X39020185Y-158129937D01*
X39072989Y-158084182D01*
X39100135Y-158076736D01*
X39099932Y-158075876D01*
X39107479Y-158074092D01*
X39107481Y-158074091D01*
X39107483Y-158074091D01*
X39242331Y-158023796D01*
X39357546Y-157937546D01*
X39443796Y-157822331D01*
X39494091Y-157687483D01*
X39500500Y-157627873D01*
X39500499Y-155532128D01*
X39494091Y-155472517D01*
X39480680Y-155436561D01*
X39443797Y-155337671D01*
X39443793Y-155337664D01*
X39357546Y-155222454D01*
X39357544Y-155222452D01*
X39242335Y-155136206D01*
X39242328Y-155136202D01*
X39107482Y-155085908D01*
X39099938Y-155084126D01*
X39100474Y-155081853D01*
X39046688Y-155059571D01*
X39006843Y-155002177D01*
X39000500Y-154963024D01*
X39000500Y-152865782D01*
X39020185Y-152798743D01*
X39036819Y-152778101D01*
X39644402Y-152170519D01*
X39705725Y-152137034D01*
X39732083Y-152134200D01*
X58860723Y-152134200D01*
X58927762Y-152153885D01*
X58973517Y-152206689D01*
X58977703Y-152217071D01*
X58982476Y-152230648D01*
X58983609Y-152241183D01*
X59028452Y-152361413D01*
X59028859Y-152362571D01*
X59030632Y-152396322D01*
X59033045Y-152430059D01*
X59032502Y-152431908D01*
X59032525Y-152432345D01*
X59032213Y-152432890D01*
X59028061Y-152447033D01*
X58985567Y-152560966D01*
X58983609Y-152566217D01*
X58981185Y-152588757D01*
X58954449Y-152653305D01*
X58897057Y-152693154D01*
X58857897Y-152699500D01*
X44201457Y-152699500D01*
X44140383Y-152711649D01*
X44140382Y-152711649D01*
X44008167Y-152737947D01*
X44008159Y-152737950D01*
X43954834Y-152760037D01*
X43954834Y-152760038D01*
X43911227Y-152778101D01*
X43826089Y-152813366D01*
X43826079Y-152813371D01*
X43662219Y-152922859D01*
X43611173Y-152973906D01*
X43522861Y-153062218D01*
X43522858Y-153062221D01*
X43028888Y-153556191D01*
X43028885Y-153556194D01*
X42959205Y-153625873D01*
X42889526Y-153695552D01*
X42780038Y-153859413D01*
X42780031Y-153859426D01*
X42736081Y-153965535D01*
X42736081Y-153965536D01*
X42725187Y-153991836D01*
X42704616Y-154041497D01*
X42704614Y-154041503D01*
X42666167Y-154234789D01*
X42666167Y-154963023D01*
X42646482Y-155030062D01*
X42593678Y-155075817D01*
X42566532Y-155083266D01*
X42566735Y-155084124D01*
X42559187Y-155085907D01*
X42424338Y-155136202D01*
X42424331Y-155136206D01*
X42309122Y-155222452D01*
X42309121Y-155222454D01*
X42222873Y-155337664D01*
X42222869Y-155337671D01*
X42172575Y-155472517D01*
X42166168Y-155532116D01*
X42166168Y-155532123D01*
X42166167Y-155532135D01*
X42166167Y-157627870D01*
X42166168Y-157627876D01*
X42172575Y-157687483D01*
X42222869Y-157822328D01*
X42222873Y-157822335D01*
X42309119Y-157937544D01*
X42309122Y-157937547D01*
X42424331Y-158023793D01*
X42424338Y-158023797D01*
X42559184Y-158074091D01*
X42566729Y-158075874D01*
X42566190Y-158078151D01*
X42619954Y-158100408D01*
X42659814Y-158157793D01*
X42666167Y-158196975D01*
X42666167Y-158843483D01*
X42646482Y-158910522D01*
X42593678Y-158956277D01*
X42570694Y-158964157D01*
X42567522Y-158964906D01*
X42432671Y-159015202D01*
X42432664Y-159015206D01*
X42317455Y-159101452D01*
X42317452Y-159101455D01*
X42231206Y-159216664D01*
X42231202Y-159216671D01*
X42180908Y-159351517D01*
X42174501Y-159411116D01*
X42174501Y-159411123D01*
X42174500Y-159411135D01*
X42174500Y-161506870D01*
X42174501Y-161506876D01*
X42180908Y-161566483D01*
X42231202Y-161701328D01*
X42231206Y-161701335D01*
X42317452Y-161816544D01*
X42317455Y-161816547D01*
X42432664Y-161902793D01*
X42432671Y-161902797D01*
X42567517Y-161953091D01*
X42567516Y-161953091D01*
X42574444Y-161953835D01*
X42627127Y-161959500D01*
X44722872Y-161959499D01*
X44782483Y-161953091D01*
X44917331Y-161902796D01*
X45032546Y-161816546D01*
X45118796Y-161701331D01*
X45169091Y-161566483D01*
X45175500Y-161506873D01*
X45175499Y-159411128D01*
X45169091Y-159351517D01*
X45118796Y-159216669D01*
X45118795Y-159216668D01*
X45118793Y-159216664D01*
X45032547Y-159101455D01*
X45032544Y-159101452D01*
X44917335Y-159015206D01*
X44917328Y-159015202D01*
X44782483Y-158964908D01*
X44777909Y-158964417D01*
X44713358Y-158937677D01*
X44673512Y-158880284D01*
X44667167Y-158841128D01*
X44667167Y-158196976D01*
X44686852Y-158129937D01*
X44739656Y-158084182D01*
X44766802Y-158076736D01*
X44766599Y-158075876D01*
X44774146Y-158074092D01*
X44774148Y-158074091D01*
X44774150Y-158074091D01*
X44908998Y-158023796D01*
X45024213Y-157937546D01*
X45110463Y-157822331D01*
X45160758Y-157687483D01*
X45167167Y-157627873D01*
X45167166Y-155532128D01*
X45160758Y-155472517D01*
X45147347Y-155436561D01*
X45110464Y-155337671D01*
X45110460Y-155337664D01*
X45024213Y-155222454D01*
X45024211Y-155222452D01*
X44909002Y-155136206D01*
X44908995Y-155136202D01*
X44774149Y-155085908D01*
X44773525Y-155085761D01*
X44773520Y-155085762D01*
X44773510Y-155085757D01*
X44766605Y-155084126D01*
X44766929Y-155082752D01*
X44743670Y-155072130D01*
X44713355Y-155059571D01*
X44712048Y-155057688D01*
X44709964Y-155056737D01*
X44692227Y-155029138D01*
X44673510Y-155002177D01*
X44673041Y-154999283D01*
X44672190Y-154997959D01*
X44667167Y-154963024D01*
X44667167Y-154824500D01*
X44686852Y-154757461D01*
X44739656Y-154711706D01*
X44791167Y-154700500D01*
X58867421Y-154700500D01*
X58934460Y-154720185D01*
X58980215Y-154772989D01*
X58983603Y-154781168D01*
X59028061Y-154900368D01*
X59033045Y-154970059D01*
X59028061Y-154987033D01*
X58983608Y-155106217D01*
X58979900Y-155140711D01*
X58977201Y-155165823D01*
X58977200Y-155165835D01*
X58977200Y-157261570D01*
X58977201Y-157261576D01*
X58983608Y-157321183D01*
X59028061Y-157440367D01*
X59029865Y-157465595D01*
X59035708Y-157490205D01*
X59032671Y-157504830D01*
X59033045Y-157510059D01*
X59028860Y-157524828D01*
X59028463Y-157525955D01*
X58983609Y-157646217D01*
X58982475Y-157656759D01*
X58977705Y-157670328D01*
X58965360Y-157687485D01*
X58957271Y-157707012D01*
X58945364Y-157715277D01*
X58936899Y-157727044D01*
X58917239Y-157734803D01*
X58899877Y-157746857D01*
X58877524Y-157750478D01*
X58871908Y-157752695D01*
X58868275Y-157751976D01*
X58860724Y-157753200D01*
X56999500Y-157753200D01*
X56932461Y-157733515D01*
X56886706Y-157680711D01*
X56875500Y-157629200D01*
X56875500Y-157356456D01*
X56875499Y-157356454D01*
X56837052Y-157163170D01*
X56837050Y-157163162D01*
X56833271Y-157154040D01*
X56833268Y-157154033D01*
X56791798Y-157053915D01*
X56791798Y-157053914D01*
X56761632Y-156981086D01*
X56761628Y-156981080D01*
X56652139Y-156817217D01*
X56536818Y-156701896D01*
X56503333Y-156640573D01*
X56500499Y-156614215D01*
X56500499Y-155532129D01*
X56500498Y-155532123D01*
X56500497Y-155532116D01*
X56494091Y-155472517D01*
X56480680Y-155436561D01*
X56443797Y-155337671D01*
X56443793Y-155337664D01*
X56357546Y-155222454D01*
X56357544Y-155222452D01*
X56242335Y-155136206D01*
X56242328Y-155136202D01*
X56107482Y-155085908D01*
X56107483Y-155085908D01*
X56047883Y-155079501D01*
X56047881Y-155079500D01*
X56047873Y-155079500D01*
X56047864Y-155079500D01*
X53952129Y-155079500D01*
X53952123Y-155079501D01*
X53892516Y-155085908D01*
X53757671Y-155136202D01*
X53757664Y-155136206D01*
X53642455Y-155222452D01*
X53642454Y-155222454D01*
X53556206Y-155337664D01*
X53556202Y-155337671D01*
X53505908Y-155472517D01*
X53499501Y-155532116D01*
X53499501Y-155532123D01*
X53499500Y-155532135D01*
X53499500Y-157627870D01*
X53499501Y-157627876D01*
X53505908Y-157687483D01*
X53556202Y-157822328D01*
X53556206Y-157822335D01*
X53642452Y-157937544D01*
X53642455Y-157937547D01*
X53757664Y-158023793D01*
X53757671Y-158023797D01*
X53892517Y-158074091D01*
X53892516Y-158074091D01*
X53899444Y-158074835D01*
X53952127Y-158080500D01*
X54750500Y-158080499D01*
X54817539Y-158100183D01*
X54863294Y-158152987D01*
X54874500Y-158204499D01*
X54874500Y-158842023D01*
X54854815Y-158909062D01*
X54802011Y-158954817D01*
X54774865Y-158962266D01*
X54775068Y-158963124D01*
X54767520Y-158964907D01*
X54632671Y-159015202D01*
X54632664Y-159015206D01*
X54517455Y-159101452D01*
X54517452Y-159101455D01*
X54431206Y-159216664D01*
X54431202Y-159216671D01*
X54380908Y-159351517D01*
X54374501Y-159411116D01*
X54374501Y-159411123D01*
X54374500Y-159411135D01*
X54374500Y-161506870D01*
X54374501Y-161506876D01*
X54380908Y-161566483D01*
X54431202Y-161701328D01*
X54431206Y-161701335D01*
X54517452Y-161816544D01*
X54517455Y-161816547D01*
X54632664Y-161902793D01*
X54632671Y-161902797D01*
X54767517Y-161953091D01*
X54767516Y-161953091D01*
X54774444Y-161953835D01*
X54827127Y-161959500D01*
X56922872Y-161959499D01*
X56982483Y-161953091D01*
X57117331Y-161902796D01*
X57232546Y-161816546D01*
X57318796Y-161701331D01*
X57369091Y-161566483D01*
X57375500Y-161506873D01*
X57375499Y-159878199D01*
X57395184Y-159811161D01*
X57447987Y-159765406D01*
X57499499Y-159754200D01*
X58860723Y-159754200D01*
X58927762Y-159773885D01*
X58973517Y-159826689D01*
X58980966Y-159853834D01*
X58981824Y-159853632D01*
X58983607Y-159861179D01*
X59033902Y-159996028D01*
X59033906Y-159996035D01*
X59120152Y-160111244D01*
X59120155Y-160111247D01*
X59235364Y-160197493D01*
X59235371Y-160197497D01*
X59370217Y-160247791D01*
X59370216Y-160247791D01*
X59377144Y-160248535D01*
X59429827Y-160254200D01*
X61525572Y-160254199D01*
X61585183Y-160247791D01*
X61720031Y-160197496D01*
X61835246Y-160111246D01*
X61921496Y-159996031D01*
X61971791Y-159861183D01*
X61978200Y-159801573D01*
X61978199Y-157705828D01*
X61971791Y-157646217D01*
X61964950Y-157627876D01*
X61927338Y-157527033D01*
X61925533Y-157501802D01*
X61919691Y-157477194D01*
X61922727Y-157462569D01*
X61922354Y-157457342D01*
X61926540Y-157442571D01*
X61926930Y-157441460D01*
X61971791Y-157321183D01*
X61972924Y-157310643D01*
X61977696Y-157297071D01*
X61990038Y-157279916D01*
X61998129Y-157260388D01*
X62010037Y-157252120D01*
X62018502Y-157240356D01*
X62038159Y-157232597D01*
X62055523Y-157220543D01*
X62077877Y-157216921D01*
X62083493Y-157214705D01*
X62087124Y-157215423D01*
X62094676Y-157214200D01*
X62275500Y-157214200D01*
X62342539Y-157233885D01*
X62388294Y-157286689D01*
X62399500Y-157338200D01*
X62399500Y-162175500D01*
X62379815Y-162242539D01*
X62327011Y-162288294D01*
X62275500Y-162299500D01*
X50965782Y-162299500D01*
X50936341Y-162290855D01*
X50906355Y-162284332D01*
X50901339Y-162280577D01*
X50898743Y-162279815D01*
X50878101Y-162263181D01*
X50811819Y-162196899D01*
X50778334Y-162135576D01*
X50775500Y-162109218D01*
X50775500Y-162075976D01*
X50795185Y-162008937D01*
X50847989Y-161963182D01*
X50875135Y-161955736D01*
X50874932Y-161954876D01*
X50882479Y-161953092D01*
X50882481Y-161953091D01*
X50882483Y-161953091D01*
X51017331Y-161902796D01*
X51132546Y-161816546D01*
X51218796Y-161701331D01*
X51269091Y-161566483D01*
X51275500Y-161506873D01*
X51275499Y-159411128D01*
X51269091Y-159351517D01*
X51218796Y-159216669D01*
X51218795Y-159216668D01*
X51218793Y-159216664D01*
X51132547Y-159101455D01*
X51132544Y-159101452D01*
X51017335Y-159015206D01*
X51017328Y-159015202D01*
X50882482Y-158964908D01*
X50882483Y-158964908D01*
X50822883Y-158958501D01*
X50822881Y-158958500D01*
X50822873Y-158958500D01*
X50822865Y-158958500D01*
X50457833Y-158958500D01*
X50390794Y-158938815D01*
X50345039Y-158886011D01*
X50333833Y-158834500D01*
X50333833Y-158196976D01*
X50353518Y-158129937D01*
X50406322Y-158084182D01*
X50433468Y-158076736D01*
X50433265Y-158075876D01*
X50440812Y-158074092D01*
X50440814Y-158074091D01*
X50440816Y-158074091D01*
X50575664Y-158023796D01*
X50690879Y-157937546D01*
X50777129Y-157822331D01*
X50827424Y-157687483D01*
X50833833Y-157627873D01*
X50833832Y-155532128D01*
X50827424Y-155472517D01*
X50814013Y-155436561D01*
X50777130Y-155337671D01*
X50777126Y-155337664D01*
X50690879Y-155222454D01*
X50690877Y-155222452D01*
X50575668Y-155136206D01*
X50575661Y-155136202D01*
X50440815Y-155085908D01*
X50440816Y-155085908D01*
X50381216Y-155079501D01*
X50381214Y-155079500D01*
X50381206Y-155079500D01*
X50381197Y-155079500D01*
X48285462Y-155079500D01*
X48285456Y-155079501D01*
X48225849Y-155085908D01*
X48091004Y-155136202D01*
X48090997Y-155136206D01*
X47975788Y-155222452D01*
X47975787Y-155222454D01*
X47889539Y-155337664D01*
X47889535Y-155337671D01*
X47839241Y-155472517D01*
X47832834Y-155532116D01*
X47832834Y-155532123D01*
X47832833Y-155532135D01*
X47832833Y-157627870D01*
X47832834Y-157627876D01*
X47839241Y-157687483D01*
X47889535Y-157822328D01*
X47889539Y-157822335D01*
X47975785Y-157937544D01*
X47975788Y-157937547D01*
X48090997Y-158023793D01*
X48091004Y-158023797D01*
X48225850Y-158074091D01*
X48233395Y-158075874D01*
X48232856Y-158078151D01*
X48286620Y-158100408D01*
X48326480Y-158157793D01*
X48332833Y-158196975D01*
X48332833Y-159189929D01*
X48325015Y-159233262D01*
X48280908Y-159351517D01*
X48274501Y-159411116D01*
X48274501Y-159411123D01*
X48274500Y-159411135D01*
X48274500Y-161506870D01*
X48274501Y-161506876D01*
X48280908Y-161566483D01*
X48331202Y-161701328D01*
X48331206Y-161701335D01*
X48417452Y-161816544D01*
X48417455Y-161816547D01*
X48532664Y-161902793D01*
X48532671Y-161902797D01*
X48667517Y-161953091D01*
X48675062Y-161954874D01*
X48674523Y-161957151D01*
X48728287Y-161979408D01*
X48768147Y-162036793D01*
X48774500Y-162075975D01*
X48774500Y-162673542D01*
X48812947Y-162866829D01*
X48812950Y-162866839D01*
X48888364Y-163048907D01*
X48888371Y-163048920D01*
X48997860Y-163212781D01*
X48997863Y-163212785D01*
X49141537Y-163356459D01*
X49141559Y-163356479D01*
X49719735Y-163934655D01*
X49719764Y-163934686D01*
X49862214Y-164077136D01*
X49862218Y-164077139D01*
X50026079Y-164186628D01*
X50026092Y-164186635D01*
X50154833Y-164239961D01*
X50197744Y-164257735D01*
X50208164Y-164262051D01*
X50304812Y-164281275D01*
X50353135Y-164290887D01*
X50401458Y-164300500D01*
X50401459Y-164300500D01*
X63398542Y-164300500D01*
X63429566Y-164294328D01*
X63495188Y-164281275D01*
X63591836Y-164262051D01*
X63645165Y-164239961D01*
X63773914Y-164186632D01*
X63937782Y-164077139D01*
X64077139Y-163937782D01*
X64077140Y-163937781D01*
X64177139Y-163837782D01*
X64286632Y-163673914D01*
X64362051Y-163491835D01*
X64374632Y-163428582D01*
X64400500Y-163298543D01*
X64400500Y-156701456D01*
X64362051Y-156508166D01*
X64361930Y-156507874D01*
X64361874Y-156507739D01*
X64330811Y-156432745D01*
X64286635Y-156326093D01*
X64286634Y-156326092D01*
X64286632Y-156326086D01*
X64177139Y-156162218D01*
X64037782Y-156022861D01*
X64037781Y-156022860D01*
X63597908Y-155582988D01*
X63597906Y-155582985D01*
X63597906Y-155582986D01*
X63590839Y-155575919D01*
X63590839Y-155575918D01*
X63451482Y-155436561D01*
X63451481Y-155436560D01*
X63451480Y-155436559D01*
X63287620Y-155327071D01*
X63287611Y-155327066D01*
X63216384Y-155297563D01*
X63158865Y-155273738D01*
X63105536Y-155251649D01*
X62958763Y-155222454D01*
X62955169Y-155221739D01*
X62955165Y-155221738D01*
X62912242Y-155213200D01*
X62912241Y-155213200D01*
X62094677Y-155213200D01*
X62027638Y-155193515D01*
X61981883Y-155140711D01*
X61977697Y-155130330D01*
X61972923Y-155116753D01*
X61971791Y-155106217D01*
X61926924Y-154985923D01*
X61926540Y-154984830D01*
X61924766Y-154951076D01*
X61922354Y-154917342D01*
X61922896Y-154915492D01*
X61922874Y-154915056D01*
X61923185Y-154914510D01*
X61927338Y-154900367D01*
X61971791Y-154781183D01*
X61978200Y-154721573D01*
X61978199Y-152625828D01*
X61971791Y-152566217D01*
X61927337Y-152447032D01*
X61922354Y-152377342D01*
X61927338Y-152360367D01*
X61935157Y-152339403D01*
X61971791Y-152241183D01*
X61978200Y-152181573D01*
X61978199Y-150085828D01*
X61971791Y-150026217D01*
X61967912Y-150015818D01*
X61927338Y-149907033D01*
X61922354Y-149837342D01*
X61927338Y-149820367D01*
X61971791Y-149701182D01*
X61978200Y-149641573D01*
X61978199Y-147545828D01*
X61971791Y-147486217D01*
X61964950Y-147467876D01*
X61927338Y-147367033D01*
X61922354Y-147297342D01*
X61927338Y-147280367D01*
X61971791Y-147161182D01*
X61978200Y-147101573D01*
X61978199Y-145005828D01*
X61971791Y-144946217D01*
X61964216Y-144925908D01*
X61921497Y-144811371D01*
X61921493Y-144811364D01*
X61835247Y-144696155D01*
X61835244Y-144696152D01*
X61720035Y-144609906D01*
X61720028Y-144609902D01*
X61585182Y-144559608D01*
X61585183Y-144559608D01*
X61525583Y-144553201D01*
X61525581Y-144553200D01*
X61525573Y-144553200D01*
X61525564Y-144553200D01*
X59429829Y-144553200D01*
X59429823Y-144553201D01*
X59370216Y-144559608D01*
X59235371Y-144609902D01*
X59235364Y-144609906D01*
X59120155Y-144696152D01*
X59120152Y-144696155D01*
X59033906Y-144811364D01*
X59033902Y-144811371D01*
X58983608Y-144946217D01*
X58977201Y-145005816D01*
X58977201Y-145005823D01*
X58977200Y-145005835D01*
X58977200Y-147101570D01*
X58977201Y-147101576D01*
X58983608Y-147161183D01*
X59028061Y-147280367D01*
X59033045Y-147350059D01*
X59028061Y-147367033D01*
X58983608Y-147486217D01*
X58979172Y-147527482D01*
X58977201Y-147545823D01*
X58977200Y-147545835D01*
X58977200Y-149641570D01*
X58977201Y-149641576D01*
X58983608Y-149701183D01*
X59028061Y-149820367D01*
X59029865Y-149845595D01*
X59035708Y-149870205D01*
X59032671Y-149884830D01*
X59033045Y-149890059D01*
X59028860Y-149904828D01*
X59028463Y-149905955D01*
X58983609Y-150026217D01*
X58982475Y-150036759D01*
X58977705Y-150050328D01*
X58965360Y-150067485D01*
X58957271Y-150087012D01*
X58945364Y-150095277D01*
X58936899Y-150107044D01*
X58917239Y-150114803D01*
X58899877Y-150126857D01*
X58877524Y-150130478D01*
X58871908Y-150132695D01*
X58868275Y-150131976D01*
X58860724Y-150133200D01*
X39167754Y-150133200D01*
X39135691Y-150139576D01*
X39135692Y-150139577D01*
X38974470Y-150171646D01*
X38974464Y-150171648D01*
X38792388Y-150247066D01*
X38792379Y-150247071D01*
X38628519Y-150356559D01*
X38628515Y-150356562D01*
X37362220Y-151622859D01*
X37362218Y-151622861D01*
X37292538Y-151692540D01*
X37222859Y-151762219D01*
X37113371Y-151926079D01*
X37113364Y-151926092D01*
X37037950Y-152108160D01*
X37037947Y-152108170D01*
X36999500Y-152301456D01*
X36999500Y-154963023D01*
X36979815Y-155030062D01*
X36927011Y-155075817D01*
X36899865Y-155083266D01*
X36900068Y-155084124D01*
X36892520Y-155085907D01*
X36757671Y-155136202D01*
X36757664Y-155136206D01*
X36642455Y-155222452D01*
X36642454Y-155222454D01*
X36556206Y-155337664D01*
X36556202Y-155337671D01*
X36505908Y-155472517D01*
X36499501Y-155532116D01*
X36499501Y-155532123D01*
X36499500Y-155532135D01*
X36499500Y-157627870D01*
X36499501Y-157627876D01*
X36505908Y-157687483D01*
X36556202Y-157822328D01*
X36556206Y-157822335D01*
X36642452Y-157937544D01*
X36642455Y-157937547D01*
X36757664Y-158023793D01*
X36757671Y-158023797D01*
X36892517Y-158074091D01*
X36900062Y-158075874D01*
X36899523Y-158078151D01*
X36953287Y-158100408D01*
X36993147Y-158157793D01*
X36999500Y-158196975D01*
X36999500Y-158834500D01*
X36979815Y-158901539D01*
X36927011Y-158947294D01*
X36875500Y-158958500D01*
X36527130Y-158958500D01*
X36527123Y-158958501D01*
X36467516Y-158964908D01*
X36332671Y-159015202D01*
X36332664Y-159015206D01*
X36217455Y-159101452D01*
X36217452Y-159101455D01*
X36131206Y-159216664D01*
X36131202Y-159216671D01*
X36080908Y-159351517D01*
X36074501Y-159411116D01*
X36074501Y-159411123D01*
X36074500Y-159411135D01*
X34000500Y-159411135D01*
X34000500Y-145372135D01*
X36499500Y-145372135D01*
X36499500Y-147467870D01*
X36499501Y-147467876D01*
X36505908Y-147527483D01*
X36556202Y-147662328D01*
X36556206Y-147662335D01*
X36642452Y-147777544D01*
X36642455Y-147777547D01*
X36757664Y-147863793D01*
X36757671Y-147863797D01*
X36892517Y-147914091D01*
X36892516Y-147914091D01*
X36899444Y-147914835D01*
X36952127Y-147920500D01*
X39047872Y-147920499D01*
X39107483Y-147914091D01*
X39242331Y-147863796D01*
X39357546Y-147777546D01*
X39443796Y-147662331D01*
X39494091Y-147527483D01*
X39494091Y-147527481D01*
X39495874Y-147519938D01*
X39498146Y-147520474D01*
X39520429Y-147466688D01*
X39577823Y-147426843D01*
X39616976Y-147420500D01*
X42049690Y-147420500D01*
X42116729Y-147440185D01*
X42162484Y-147492989D01*
X42169933Y-147520134D01*
X42170791Y-147519932D01*
X42172574Y-147527479D01*
X42222869Y-147662328D01*
X42222873Y-147662335D01*
X42309119Y-147777544D01*
X42309122Y-147777547D01*
X42424331Y-147863793D01*
X42424338Y-147863797D01*
X42559184Y-147914091D01*
X42559183Y-147914091D01*
X42566111Y-147914835D01*
X42618794Y-147920500D01*
X44714539Y-147920499D01*
X44774150Y-147914091D01*
X44908998Y-147863796D01*
X45024213Y-147777546D01*
X45110463Y-147662331D01*
X45160758Y-147527483D01*
X45160758Y-147527481D01*
X45162541Y-147519938D01*
X45164813Y-147520474D01*
X45187096Y-147466688D01*
X45244490Y-147426843D01*
X45283643Y-147420500D01*
X47716356Y-147420500D01*
X47783395Y-147440185D01*
X47829150Y-147492989D01*
X47836599Y-147520134D01*
X47837457Y-147519932D01*
X47839240Y-147527479D01*
X47889535Y-147662328D01*
X47889539Y-147662335D01*
X47975785Y-147777544D01*
X47975788Y-147777547D01*
X48090997Y-147863793D01*
X48091004Y-147863797D01*
X48225850Y-147914091D01*
X48225849Y-147914091D01*
X48232777Y-147914835D01*
X48285460Y-147920500D01*
X50381205Y-147920499D01*
X50440816Y-147914091D01*
X50575664Y-147863796D01*
X50690879Y-147777546D01*
X50777129Y-147662331D01*
X50827424Y-147527483D01*
X50827424Y-147527481D01*
X50829207Y-147519938D01*
X50831479Y-147520474D01*
X50853762Y-147466688D01*
X50911156Y-147426843D01*
X50950309Y-147420500D01*
X53383023Y-147420500D01*
X53450062Y-147440185D01*
X53495817Y-147492989D01*
X53503266Y-147520134D01*
X53504124Y-147519932D01*
X53505907Y-147527479D01*
X53556202Y-147662328D01*
X53556206Y-147662335D01*
X53642452Y-147777544D01*
X53642455Y-147777547D01*
X53757664Y-147863793D01*
X53757671Y-147863797D01*
X53892517Y-147914091D01*
X53892516Y-147914091D01*
X53899444Y-147914835D01*
X53952127Y-147920500D01*
X56047872Y-147920499D01*
X56107483Y-147914091D01*
X56242331Y-147863796D01*
X56357546Y-147777546D01*
X56443796Y-147662331D01*
X56494091Y-147527483D01*
X56500500Y-147467873D01*
X56500499Y-145372128D01*
X56494091Y-145312517D01*
X56443796Y-145177669D01*
X56443795Y-145177668D01*
X56443793Y-145177664D01*
X56357547Y-145062455D01*
X56357544Y-145062452D01*
X56242335Y-144976206D01*
X56242328Y-144976202D01*
X56107482Y-144925908D01*
X56099938Y-144924126D01*
X56100474Y-144921853D01*
X56046688Y-144899571D01*
X56006843Y-144842177D01*
X56000500Y-144803024D01*
X56000500Y-137385825D01*
X58977200Y-137385825D01*
X58977200Y-139481560D01*
X58977201Y-139481566D01*
X58983608Y-139541173D01*
X59028063Y-139660362D01*
X59033047Y-139730054D01*
X59028063Y-139747028D01*
X58983608Y-139866217D01*
X58977201Y-139925816D01*
X58977201Y-139925823D01*
X58977200Y-139925835D01*
X58977200Y-142021570D01*
X58977201Y-142021576D01*
X58983608Y-142081183D01*
X59033902Y-142216028D01*
X59033906Y-142216035D01*
X59120152Y-142331244D01*
X59120155Y-142331247D01*
X59235364Y-142417493D01*
X59235371Y-142417497D01*
X59370217Y-142467791D01*
X59370216Y-142467791D01*
X59377144Y-142468535D01*
X59429827Y-142474200D01*
X61525572Y-142474199D01*
X61585183Y-142467791D01*
X61720031Y-142417496D01*
X61835246Y-142331246D01*
X61921496Y-142216031D01*
X61971791Y-142081183D01*
X61978200Y-142021573D01*
X61978199Y-139925828D01*
X61971791Y-139866217D01*
X61927335Y-139747026D01*
X61922352Y-139677337D01*
X61927336Y-139660362D01*
X61971791Y-139541173D01*
X61978200Y-139481563D01*
X61978199Y-137385818D01*
X61971791Y-137326207D01*
X61921496Y-137191359D01*
X61921495Y-137191358D01*
X61921493Y-137191354D01*
X61835247Y-137076145D01*
X61835244Y-137076142D01*
X61720035Y-136989896D01*
X61720028Y-136989892D01*
X61585182Y-136939598D01*
X61585183Y-136939598D01*
X61525583Y-136933191D01*
X61525581Y-136933190D01*
X61525573Y-136933190D01*
X61525564Y-136933190D01*
X59429829Y-136933190D01*
X59429823Y-136933191D01*
X59370216Y-136939598D01*
X59235371Y-136989892D01*
X59235364Y-136989896D01*
X59120155Y-137076142D01*
X59120152Y-137076145D01*
X59033906Y-137191354D01*
X59033902Y-137191361D01*
X58983608Y-137326207D01*
X58977201Y-137385806D01*
X58977201Y-137385813D01*
X58977200Y-137385825D01*
X56000500Y-137385825D01*
X56000500Y-137297172D01*
X56020185Y-137230133D01*
X56036819Y-137209491D01*
X57444104Y-135802206D01*
X58793259Y-134453051D01*
X58854580Y-134419568D01*
X58924272Y-134424552D01*
X58980205Y-134466424D01*
X58997120Y-134497400D01*
X59033903Y-134596020D01*
X59033906Y-134596025D01*
X59120152Y-134711234D01*
X59120155Y-134711237D01*
X59235364Y-134797483D01*
X59235371Y-134797487D01*
X59370217Y-134847781D01*
X59370216Y-134847781D01*
X59377144Y-134848525D01*
X59429827Y-134854190D01*
X61525572Y-134854189D01*
X61585183Y-134847781D01*
X61720031Y-134797486D01*
X61835246Y-134711236D01*
X61921496Y-134596021D01*
X61958279Y-134497401D01*
X62000150Y-134441467D01*
X62065614Y-134417049D01*
X62133887Y-134431900D01*
X62162141Y-134453051D01*
X89846870Y-162137781D01*
X89846871Y-162137782D01*
X89951628Y-162242539D01*
X89986229Y-162277140D01*
X90150091Y-162386629D01*
X90150092Y-162386629D01*
X90150096Y-162386632D01*
X90214643Y-162413368D01*
X90332174Y-162462051D01*
X90525464Y-162500499D01*
X90525467Y-162500500D01*
X90525469Y-162500500D01*
X112098543Y-162500500D01*
X112157601Y-162488752D01*
X112219397Y-162476460D01*
X112291836Y-162462051D01*
X112345165Y-162439961D01*
X112473914Y-162386632D01*
X112637782Y-162277139D01*
X112777139Y-162137782D01*
X112777140Y-162137779D01*
X112784206Y-162130714D01*
X112784209Y-162130710D01*
X121637778Y-153277141D01*
X121637782Y-153277139D01*
X121777139Y-153137782D01*
X121886632Y-152973914D01*
X121939961Y-152845165D01*
X121962051Y-152791836D01*
X121985649Y-152673200D01*
X122000500Y-152598541D01*
X122000500Y-116522975D01*
X122020185Y-116455937D01*
X122072989Y-116410182D01*
X122100135Y-116402736D01*
X122099932Y-116401876D01*
X122107479Y-116400092D01*
X122107481Y-116400091D01*
X122107483Y-116400091D01*
X122242331Y-116349796D01*
X122357546Y-116263546D01*
X122443796Y-116148331D01*
X122494091Y-116013483D01*
X122500500Y-115953873D01*
X122500499Y-113858128D01*
X122494091Y-113798517D01*
X122443796Y-113663669D01*
X122443795Y-113663668D01*
X122443793Y-113663664D01*
X122357547Y-113548455D01*
X122357544Y-113548452D01*
X122242335Y-113462206D01*
X122242328Y-113462202D01*
X122107482Y-113411908D01*
X122107483Y-113411908D01*
X122047883Y-113405501D01*
X122047881Y-113405500D01*
X122047873Y-113405500D01*
X122047864Y-113405500D01*
X119952129Y-113405500D01*
X119952123Y-113405501D01*
X119892516Y-113411908D01*
X119773333Y-113456361D01*
X119703641Y-113461345D01*
X119686667Y-113456361D01*
X119567482Y-113411908D01*
X119567483Y-113411908D01*
X119507883Y-113405501D01*
X119507881Y-113405500D01*
X119507873Y-113405500D01*
X119507864Y-113405500D01*
X117412129Y-113405500D01*
X117412123Y-113405501D01*
X117352516Y-113411908D01*
X117233333Y-113456361D01*
X117163641Y-113461345D01*
X117146667Y-113456361D01*
X117027482Y-113411908D01*
X117027483Y-113411908D01*
X116967883Y-113405501D01*
X116967881Y-113405500D01*
X116967873Y-113405500D01*
X116967864Y-113405500D01*
X114872129Y-113405500D01*
X114872123Y-113405501D01*
X114812516Y-113411908D01*
X114677671Y-113462202D01*
X114677664Y-113462206D01*
X114562455Y-113548452D01*
X114562452Y-113548455D01*
X114476206Y-113663664D01*
X114476202Y-113663671D01*
X114425908Y-113798517D01*
X114419501Y-113858116D01*
X114419501Y-113858123D01*
X114419500Y-113858135D01*
X114419500Y-115953870D01*
X114419501Y-115953876D01*
X114425908Y-116013483D01*
X114476202Y-116148328D01*
X114476206Y-116148335D01*
X114562452Y-116263544D01*
X114562455Y-116263547D01*
X114677664Y-116349793D01*
X114677671Y-116349797D01*
X114812517Y-116400091D01*
X114820062Y-116401874D01*
X114819523Y-116404151D01*
X114873287Y-116426408D01*
X114913147Y-116483793D01*
X114919500Y-116522975D01*
X114919500Y-145414218D01*
X114899815Y-145481257D01*
X114883181Y-145501899D01*
X110402745Y-149982334D01*
X110402743Y-149982334D01*
X110402743Y-149982336D01*
X110366730Y-150001999D01*
X110341422Y-150015819D01*
X110341420Y-150015818D01*
X110341419Y-150015820D01*
X110300558Y-150012896D01*
X110271730Y-150010835D01*
X110271728Y-150010834D01*
X110233658Y-149982334D01*
X110215797Y-149968963D01*
X110215795Y-149968961D01*
X110198884Y-149937991D01*
X110187336Y-149907029D01*
X110182354Y-149837339D01*
X110187338Y-149820367D01*
X110231791Y-149701182D01*
X110238200Y-149641573D01*
X110238199Y-147545828D01*
X110231791Y-147486217D01*
X110224950Y-147467876D01*
X110187338Y-147367033D01*
X110182354Y-147297342D01*
X110187338Y-147280367D01*
X110231791Y-147161182D01*
X110238200Y-147101573D01*
X110238199Y-145005828D01*
X110231791Y-144946217D01*
X110224216Y-144925908D01*
X110203387Y-144870062D01*
X110187337Y-144827032D01*
X110182354Y-144757342D01*
X110187338Y-144740367D01*
X110203828Y-144696155D01*
X110231791Y-144621183D01*
X110238200Y-144561573D01*
X110238199Y-142465828D01*
X110231791Y-142406217D01*
X110187337Y-142287032D01*
X110182354Y-142217342D01*
X110187338Y-142200367D01*
X110231791Y-142081182D01*
X110238200Y-142021573D01*
X110238199Y-139925828D01*
X110231791Y-139866217D01*
X110187336Y-139747028D01*
X110181497Y-139731371D01*
X110181493Y-139731364D01*
X110095247Y-139616155D01*
X110095244Y-139616152D01*
X109980035Y-139529906D01*
X109980028Y-139529902D01*
X109845182Y-139479608D01*
X109845183Y-139479608D01*
X109785583Y-139473201D01*
X109785581Y-139473200D01*
X109785573Y-139473200D01*
X109785564Y-139473200D01*
X107689829Y-139473200D01*
X107689823Y-139473201D01*
X107630216Y-139479608D01*
X107495371Y-139529902D01*
X107495364Y-139529906D01*
X107380155Y-139616152D01*
X107380152Y-139616155D01*
X107293906Y-139731364D01*
X107293902Y-139731371D01*
X107243608Y-139866217D01*
X107237201Y-139925816D01*
X107237201Y-139925823D01*
X107237200Y-139925835D01*
X107237200Y-142021570D01*
X107237201Y-142021576D01*
X107243608Y-142081183D01*
X107288061Y-142200367D01*
X107293045Y-142270059D01*
X107288061Y-142287033D01*
X107243608Y-142406217D01*
X107237201Y-142465816D01*
X107237201Y-142465823D01*
X107237200Y-142465835D01*
X107237200Y-144561570D01*
X107237201Y-144561576D01*
X107243608Y-144621183D01*
X107288061Y-144740367D01*
X107293045Y-144810059D01*
X107288061Y-144827033D01*
X107243608Y-144946217D01*
X107237201Y-145005816D01*
X107237201Y-145005823D01*
X107237200Y-145005835D01*
X107237200Y-147101570D01*
X107237201Y-147101576D01*
X107243608Y-147161183D01*
X107288061Y-147280367D01*
X107293045Y-147350059D01*
X107288061Y-147367033D01*
X107243608Y-147486217D01*
X107239172Y-147527482D01*
X107237201Y-147545823D01*
X107237200Y-147545835D01*
X107237200Y-149641570D01*
X107237201Y-149641576D01*
X107243608Y-149701183D01*
X107288061Y-149820367D01*
X107293045Y-149890059D01*
X107288061Y-149907033D01*
X107243608Y-150026217D01*
X107239172Y-150067485D01*
X107237201Y-150085823D01*
X107237200Y-150085835D01*
X107237200Y-152181570D01*
X107237201Y-152181576D01*
X107243608Y-152241183D01*
X107288061Y-152360367D01*
X107293045Y-152430059D01*
X107288061Y-152447033D01*
X107243608Y-152566217D01*
X107237201Y-152625816D01*
X107237201Y-152625823D01*
X107237200Y-152625835D01*
X107237200Y-154721570D01*
X107237201Y-154721576D01*
X107243608Y-154781183D01*
X107288061Y-154900367D01*
X107293045Y-154970059D01*
X107288061Y-154987033D01*
X107243608Y-155106217D01*
X107239900Y-155140711D01*
X107237201Y-155165823D01*
X107237200Y-155165835D01*
X107237200Y-157261570D01*
X107237201Y-157261576D01*
X107243608Y-157321183D01*
X107288061Y-157440367D01*
X107293045Y-157510059D01*
X107288061Y-157527033D01*
X107243608Y-157646217D01*
X107239900Y-157680711D01*
X107237201Y-157705823D01*
X107237200Y-157705835D01*
X107237200Y-159801570D01*
X107237201Y-159801576D01*
X107243608Y-159861183D01*
X107293902Y-159996028D01*
X107293906Y-159996035D01*
X107380152Y-160111244D01*
X107380155Y-160111247D01*
X107495364Y-160197493D01*
X107495371Y-160197497D01*
X107630217Y-160247791D01*
X107630216Y-160247791D01*
X107671326Y-160252211D01*
X107735877Y-160278949D01*
X107775725Y-160336341D01*
X107778219Y-160406166D01*
X107742567Y-160466255D01*
X107680087Y-160497530D01*
X107658071Y-160499500D01*
X91089793Y-160499500D01*
X91022754Y-160479815D01*
X91002112Y-160463181D01*
X63254839Y-132715908D01*
X63115482Y-132576551D01*
X63115481Y-132576550D01*
X63115480Y-132576549D01*
X62951620Y-132467061D01*
X62951611Y-132467056D01*
X62879015Y-132436986D01*
X62822865Y-132413728D01*
X62769536Y-132391639D01*
X62769532Y-132391638D01*
X62769528Y-132391636D01*
X62672888Y-132372414D01*
X62576244Y-132353190D01*
X62576241Y-132353190D01*
X62094677Y-132353190D01*
X62027638Y-132333505D01*
X61981883Y-132280701D01*
X61977697Y-132270320D01*
X61972923Y-132256743D01*
X61971791Y-132246207D01*
X61926924Y-132125913D01*
X61926540Y-132124820D01*
X61924766Y-132091066D01*
X61922354Y-132057332D01*
X61922896Y-132055482D01*
X61922874Y-132055046D01*
X61923185Y-132054500D01*
X61927338Y-132040357D01*
X61971791Y-131921172D01*
X61978200Y-131861563D01*
X61978199Y-129765818D01*
X61971791Y-129706207D01*
X61927337Y-129587022D01*
X61922354Y-129517332D01*
X61927338Y-129500357D01*
X61971791Y-129381172D01*
X61978200Y-129321563D01*
X61978199Y-127225818D01*
X61971791Y-127166207D01*
X61957381Y-127127573D01*
X61927338Y-127047023D01*
X61922354Y-126977332D01*
X61927338Y-126960357D01*
X61971791Y-126841172D01*
X61978200Y-126781563D01*
X61978199Y-124685818D01*
X61971791Y-124626207D01*
X61927337Y-124507022D01*
X61922354Y-124437332D01*
X61927338Y-124420357D01*
X61971791Y-124301172D01*
X61978200Y-124241563D01*
X61978199Y-122145818D01*
X61971791Y-122086207D01*
X61964937Y-122067832D01*
X61959954Y-121998142D01*
X61993439Y-121936819D01*
X62054762Y-121903334D01*
X62081120Y-121900500D01*
X90534218Y-121900500D01*
X90601257Y-121920185D01*
X90621898Y-121936818D01*
X103692550Y-135007471D01*
X103692551Y-135007472D01*
X103831908Y-135146829D01*
X103831909Y-135146830D01*
X103995769Y-135256318D01*
X103995782Y-135256325D01*
X104124523Y-135309651D01*
X104167434Y-135327425D01*
X104177854Y-135331741D01*
X104274502Y-135350965D01*
X104322825Y-135360577D01*
X104371148Y-135370190D01*
X104371149Y-135370190D01*
X104371150Y-135370190D01*
X104568230Y-135370190D01*
X106639159Y-135370190D01*
X107120723Y-135370190D01*
X107187762Y-135389875D01*
X107233517Y-135442679D01*
X107237703Y-135453061D01*
X107242476Y-135466638D01*
X107243609Y-135477173D01*
X107288452Y-135597403D01*
X107288859Y-135598561D01*
X107290632Y-135632312D01*
X107293045Y-135666049D01*
X107292502Y-135667898D01*
X107292525Y-135668335D01*
X107292213Y-135668880D01*
X107288061Y-135683023D01*
X107243608Y-135802207D01*
X107237201Y-135861806D01*
X107237201Y-135861813D01*
X107237200Y-135861825D01*
X107237200Y-137957560D01*
X107237201Y-137957566D01*
X107243608Y-138017173D01*
X107293902Y-138152018D01*
X107293906Y-138152025D01*
X107380152Y-138267234D01*
X107380155Y-138267237D01*
X107495364Y-138353483D01*
X107495371Y-138353487D01*
X107630217Y-138403781D01*
X107630216Y-138403781D01*
X107637144Y-138404525D01*
X107689827Y-138410190D01*
X109785572Y-138410189D01*
X109845183Y-138403781D01*
X109980031Y-138353486D01*
X110095246Y-138267236D01*
X110181496Y-138152021D01*
X110231791Y-138017173D01*
X110238200Y-137957563D01*
X110238199Y-135861818D01*
X110231791Y-135802207D01*
X110187337Y-135683022D01*
X110182354Y-135613332D01*
X110187338Y-135596357D01*
X110231791Y-135477172D01*
X110234383Y-135453061D01*
X110238200Y-135417563D01*
X110238199Y-133321818D01*
X110231791Y-133262207D01*
X110187337Y-133143022D01*
X110182354Y-133073332D01*
X110187338Y-133056357D01*
X110231791Y-132937172D01*
X110234383Y-132913061D01*
X110238200Y-132877563D01*
X110238199Y-130781818D01*
X110231791Y-130722207D01*
X110193289Y-130618979D01*
X110187338Y-130603022D01*
X110182354Y-130533330D01*
X110187332Y-130516372D01*
X110231791Y-130397174D01*
X110238200Y-130337564D01*
X110238199Y-128241819D01*
X110231791Y-128182208D01*
X110231790Y-128182205D01*
X110187338Y-128063022D01*
X110182354Y-127993330D01*
X110187334Y-127976368D01*
X110231791Y-127857173D01*
X110238200Y-127797563D01*
X110238199Y-125701818D01*
X110231791Y-125642207D01*
X110187337Y-125523022D01*
X110182354Y-125453332D01*
X110187338Y-125436357D01*
X110231791Y-125317173D01*
X110238200Y-125257563D01*
X110238199Y-123161818D01*
X110231791Y-123102207D01*
X110211529Y-123047883D01*
X110181497Y-122967361D01*
X110181493Y-122967354D01*
X110095247Y-122852145D01*
X110095244Y-122852142D01*
X109980035Y-122765896D01*
X109980028Y-122765892D01*
X109845182Y-122715598D01*
X109845183Y-122715598D01*
X109785583Y-122709191D01*
X109785581Y-122709190D01*
X109785573Y-122709190D01*
X109785564Y-122709190D01*
X107689829Y-122709190D01*
X107689823Y-122709191D01*
X107630216Y-122715598D01*
X107495371Y-122765892D01*
X107495364Y-122765896D01*
X107380155Y-122852142D01*
X107380152Y-122852145D01*
X107293906Y-122967354D01*
X107293902Y-122967361D01*
X107243608Y-123102207D01*
X107237201Y-123161806D01*
X107237201Y-123161813D01*
X107237200Y-123161825D01*
X107237200Y-125257560D01*
X107237201Y-125257566D01*
X107243608Y-125317173D01*
X107288061Y-125436357D01*
X107293045Y-125506049D01*
X107288061Y-125523023D01*
X107243608Y-125642207D01*
X107237201Y-125701806D01*
X107237201Y-125701813D01*
X107237200Y-125701825D01*
X107237200Y-127797560D01*
X107237201Y-127797566D01*
X107243608Y-127857173D01*
X107288061Y-127976357D01*
X107293045Y-128046049D01*
X107288061Y-128063022D01*
X107243609Y-128182205D01*
X107243608Y-128182207D01*
X107237201Y-128241807D01*
X107237201Y-128241814D01*
X107237200Y-128241826D01*
X107237200Y-130337561D01*
X107237201Y-130337567D01*
X107243608Y-130397174D01*
X107288061Y-130516357D01*
X107289946Y-130542716D01*
X107295563Y-130568537D01*
X107292725Y-130581581D01*
X107293045Y-130586049D01*
X107288061Y-130603024D01*
X107282110Y-130618979D01*
X107240238Y-130674912D01*
X107174773Y-130699329D01*
X107106501Y-130684477D01*
X107078247Y-130663326D01*
X94184209Y-117769289D01*
X94184206Y-117769285D01*
X94184206Y-117769286D01*
X94177139Y-117762219D01*
X94177139Y-117762218D01*
X94037782Y-117622861D01*
X94037781Y-117622860D01*
X94037780Y-117622859D01*
X93873920Y-117513371D01*
X93873911Y-117513366D01*
X93801315Y-117483296D01*
X93745165Y-117460038D01*
X93691836Y-117437949D01*
X93691832Y-117437948D01*
X93691828Y-117437946D01*
X93595188Y-117418724D01*
X93498544Y-117399500D01*
X93498541Y-117399500D01*
X55063769Y-117399500D01*
X54996730Y-117379815D01*
X54950975Y-117327011D01*
X54941031Y-117257853D01*
X54947587Y-117232167D01*
X54980932Y-117142764D01*
X54994091Y-117107483D01*
X55000500Y-117047873D01*
X55000499Y-114952128D01*
X54994091Y-114892517D01*
X54943796Y-114757669D01*
X54943795Y-114757668D01*
X54943793Y-114757664D01*
X54857547Y-114642455D01*
X54857544Y-114642452D01*
X54742335Y-114556206D01*
X54742328Y-114556202D01*
X54607482Y-114505908D01*
X54607483Y-114505908D01*
X54547883Y-114499501D01*
X54547881Y-114499500D01*
X54547873Y-114499500D01*
X54547864Y-114499500D01*
X52452129Y-114499500D01*
X52452123Y-114499501D01*
X52392516Y-114505908D01*
X52257671Y-114556202D01*
X52257664Y-114556206D01*
X52142455Y-114642452D01*
X52142452Y-114642455D01*
X52056206Y-114757664D01*
X52056202Y-114757671D01*
X52005908Y-114892517D01*
X52004126Y-114900062D01*
X52001853Y-114899525D01*
X51979571Y-114953312D01*
X51922177Y-114993157D01*
X51883024Y-114999500D01*
X51401455Y-114999500D01*
X51309233Y-115017844D01*
X51309224Y-115017846D01*
X51304812Y-115018724D01*
X51208164Y-115037949D01*
X51159274Y-115058200D01*
X51152183Y-115061136D01*
X51152176Y-115061139D01*
X51026092Y-115113364D01*
X51026079Y-115113371D01*
X50862219Y-115222859D01*
X50808712Y-115276367D01*
X50722861Y-115362218D01*
X50722858Y-115362221D01*
X49432821Y-116652258D01*
X49432818Y-116652261D01*
X49363139Y-116721939D01*
X49293461Y-116791617D01*
X49227601Y-116890183D01*
X49173988Y-116934987D01*
X49104663Y-116943694D01*
X49041636Y-116913539D01*
X49004917Y-116854096D01*
X49000499Y-116821297D01*
X49000499Y-114952128D01*
X48994091Y-114892517D01*
X48943796Y-114757669D01*
X48943795Y-114757668D01*
X48943793Y-114757664D01*
X48857547Y-114642455D01*
X48857544Y-114642452D01*
X48742335Y-114556206D01*
X48742328Y-114556202D01*
X48607482Y-114505908D01*
X48607483Y-114505908D01*
X48547883Y-114499501D01*
X48547881Y-114499500D01*
X48547873Y-114499500D01*
X48547864Y-114499500D01*
X46452129Y-114499500D01*
X46452123Y-114499501D01*
X46392516Y-114505908D01*
X46257671Y-114556202D01*
X46257664Y-114556206D01*
X46142455Y-114642452D01*
X46142452Y-114642455D01*
X46056206Y-114757664D01*
X46056202Y-114757671D01*
X46005908Y-114892517D01*
X45999501Y-114952116D01*
X45999501Y-114952123D01*
X45999500Y-114952135D01*
X45999500Y-116034217D01*
X45990855Y-116063657D01*
X45984332Y-116093644D01*
X45980577Y-116098659D01*
X45979815Y-116101256D01*
X45963182Y-116121897D01*
X45927621Y-116157458D01*
X45927618Y-116157461D01*
X45857938Y-116227140D01*
X45788259Y-116296819D01*
X45678771Y-116460679D01*
X45678764Y-116460692D01*
X45603350Y-116642760D01*
X45603347Y-116642770D01*
X45564900Y-116836056D01*
X45564900Y-120383023D01*
X45545215Y-120450062D01*
X45492411Y-120495817D01*
X45465265Y-120503266D01*
X45465468Y-120504124D01*
X45457920Y-120505907D01*
X45323071Y-120556202D01*
X45323064Y-120556206D01*
X45207855Y-120642452D01*
X45207852Y-120642455D01*
X45121606Y-120757664D01*
X45121602Y-120757671D01*
X45071308Y-120892517D01*
X45064901Y-120952116D01*
X45064901Y-120952123D01*
X45064900Y-120952135D01*
X45064900Y-123047870D01*
X45064901Y-123047876D01*
X45071308Y-123107483D01*
X45121602Y-123242328D01*
X45121606Y-123242335D01*
X45207852Y-123357544D01*
X45207855Y-123357547D01*
X45323064Y-123443793D01*
X45323071Y-123443797D01*
X45457917Y-123494091D01*
X45457916Y-123494091D01*
X45464844Y-123494835D01*
X45517527Y-123500500D01*
X47613272Y-123500499D01*
X47672883Y-123494091D01*
X47807731Y-123443796D01*
X47922946Y-123357546D01*
X48009196Y-123242331D01*
X48059491Y-123107483D01*
X48065900Y-123047873D01*
X48065899Y-120952128D01*
X48059491Y-120892517D01*
X48025527Y-120801456D01*
X48009197Y-120757671D01*
X48009193Y-120757664D01*
X47922947Y-120642455D01*
X47922944Y-120642452D01*
X47807735Y-120556206D01*
X47807728Y-120556202D01*
X47672882Y-120505908D01*
X47665338Y-120504126D01*
X47665874Y-120501853D01*
X47612088Y-120479571D01*
X47572243Y-120422177D01*
X47565900Y-120383024D01*
X47565900Y-117624499D01*
X47585585Y-117557460D01*
X47638389Y-117511705D01*
X47689900Y-117500499D01*
X48547871Y-117500499D01*
X48547872Y-117500499D01*
X48607483Y-117494091D01*
X48742331Y-117443796D01*
X48857546Y-117357546D01*
X48857548Y-117357542D01*
X48858419Y-117356673D01*
X48859504Y-117356080D01*
X48864645Y-117352232D01*
X48865198Y-117352971D01*
X48919742Y-117323188D01*
X48989434Y-117328172D01*
X49045367Y-117370044D01*
X49069784Y-117435508D01*
X49070100Y-117444354D01*
X49070100Y-120383023D01*
X49050415Y-120450062D01*
X48997611Y-120495817D01*
X48970465Y-120503266D01*
X48970668Y-120504124D01*
X48963120Y-120505907D01*
X48828271Y-120556202D01*
X48828264Y-120556206D01*
X48713055Y-120642452D01*
X48713052Y-120642455D01*
X48626806Y-120757664D01*
X48626802Y-120757671D01*
X48576508Y-120892517D01*
X48570101Y-120952116D01*
X48570101Y-120952123D01*
X48570100Y-120952135D01*
X48570100Y-123047870D01*
X48570101Y-123047876D01*
X48576508Y-123107483D01*
X48626802Y-123242328D01*
X48626806Y-123242335D01*
X48713052Y-123357544D01*
X48713055Y-123357547D01*
X48828264Y-123443793D01*
X48828271Y-123443797D01*
X48963117Y-123494091D01*
X48963116Y-123494091D01*
X48970044Y-123494835D01*
X49022727Y-123500500D01*
X51118472Y-123500499D01*
X51178083Y-123494091D01*
X51312931Y-123443796D01*
X51428146Y-123357546D01*
X51514396Y-123242331D01*
X51564691Y-123107483D01*
X51571100Y-123047873D01*
X51571099Y-120952128D01*
X51564691Y-120892517D01*
X51530727Y-120801456D01*
X51514397Y-120757671D01*
X51514393Y-120757664D01*
X51428147Y-120642455D01*
X51428144Y-120642452D01*
X51312935Y-120556206D01*
X51312928Y-120556202D01*
X51178082Y-120505908D01*
X51170538Y-120504126D01*
X51171074Y-120501853D01*
X51117288Y-120479571D01*
X51077443Y-120422177D01*
X51071100Y-120383024D01*
X51071100Y-117895182D01*
X51090785Y-117828143D01*
X51107419Y-117807501D01*
X51454882Y-117460038D01*
X51815559Y-117099360D01*
X51876880Y-117065877D01*
X51946571Y-117070861D01*
X52002505Y-117112732D01*
X52019420Y-117143710D01*
X52056202Y-117242328D01*
X52056206Y-117242335D01*
X52142452Y-117357544D01*
X52142455Y-117357547D01*
X52257664Y-117443793D01*
X52257671Y-117443797D01*
X52273332Y-117449638D01*
X52392517Y-117494091D01*
X52452127Y-117500500D01*
X52685217Y-117500499D01*
X52752255Y-117520183D01*
X52798010Y-117572987D01*
X52807954Y-117642146D01*
X52778929Y-117705701D01*
X52772898Y-117712179D01*
X52722864Y-117762213D01*
X52722860Y-117762218D01*
X52613371Y-117926079D01*
X52613364Y-117926092D01*
X52537950Y-118108160D01*
X52537947Y-118108170D01*
X52499500Y-118301456D01*
X52499500Y-124534217D01*
X52479815Y-124601256D01*
X52463181Y-124621898D01*
X51621899Y-125463181D01*
X51560576Y-125496666D01*
X51534218Y-125499500D01*
X46901456Y-125499500D01*
X46708171Y-125537947D01*
X46708163Y-125537949D01*
X46641825Y-125565427D01*
X46641819Y-125565429D01*
X46637459Y-125567236D01*
X46526086Y-125613368D01*
X46466045Y-125653486D01*
X46459855Y-125657621D01*
X46459847Y-125657626D01*
X46362217Y-125722860D01*
X46362214Y-125722863D01*
X40223525Y-131861554D01*
X39552220Y-132532859D01*
X39552218Y-132532861D01*
X39508530Y-132576549D01*
X39412859Y-132672219D01*
X39303371Y-132836079D01*
X39303364Y-132836092D01*
X39227950Y-133018160D01*
X39227947Y-133018170D01*
X39189500Y-133211456D01*
X39189500Y-138163023D01*
X39169815Y-138230062D01*
X39117011Y-138275817D01*
X39089865Y-138283266D01*
X39090068Y-138284124D01*
X39082520Y-138285907D01*
X38947671Y-138336202D01*
X38947664Y-138336206D01*
X38832455Y-138422452D01*
X38832452Y-138422455D01*
X38746206Y-138537664D01*
X38746202Y-138537671D01*
X38695908Y-138672517D01*
X38689501Y-138732116D01*
X38689501Y-138732123D01*
X38689500Y-138732135D01*
X38689500Y-140827870D01*
X38689501Y-140827876D01*
X38695908Y-140887483D01*
X38746202Y-141022328D01*
X38746206Y-141022335D01*
X38832452Y-141137544D01*
X38832455Y-141137547D01*
X38947664Y-141223793D01*
X38947671Y-141223797D01*
X39082517Y-141274091D01*
X39082516Y-141274091D01*
X39089444Y-141274835D01*
X39142127Y-141280500D01*
X41237872Y-141280499D01*
X41297483Y-141274091D01*
X41416667Y-141229637D01*
X41486358Y-141224654D01*
X41503329Y-141229636D01*
X41622517Y-141274091D01*
X41622516Y-141274091D01*
X41629444Y-141274835D01*
X41682127Y-141280500D01*
X43777872Y-141280499D01*
X43837483Y-141274091D01*
X43956667Y-141229637D01*
X44026358Y-141224654D01*
X44043329Y-141229636D01*
X44162517Y-141274091D01*
X44162516Y-141274091D01*
X44169444Y-141274835D01*
X44222127Y-141280500D01*
X46317872Y-141280499D01*
X46377483Y-141274091D01*
X46512331Y-141223796D01*
X46627546Y-141137546D01*
X46713796Y-141022331D01*
X46764091Y-140887483D01*
X46770500Y-140827873D01*
X46770499Y-138732128D01*
X46764091Y-138672517D01*
X46713796Y-138537669D01*
X46713795Y-138537668D01*
X46713793Y-138537664D01*
X46627547Y-138422455D01*
X46627544Y-138422452D01*
X46512335Y-138336206D01*
X46512328Y-138336202D01*
X46377482Y-138285908D01*
X46377483Y-138285908D01*
X46317883Y-138279501D01*
X46317881Y-138279500D01*
X46317873Y-138279500D01*
X46317864Y-138279500D01*
X44222129Y-138279500D01*
X44222123Y-138279501D01*
X44162516Y-138285908D01*
X44043333Y-138330361D01*
X44018104Y-138332165D01*
X43993495Y-138338008D01*
X43978869Y-138334971D01*
X43973641Y-138335345D01*
X43958872Y-138331160D01*
X43957744Y-138330763D01*
X43837483Y-138285909D01*
X43826940Y-138284775D01*
X43813372Y-138280005D01*
X43796214Y-138267660D01*
X43776688Y-138259571D01*
X43768422Y-138247664D01*
X43756656Y-138239199D01*
X43748896Y-138219539D01*
X43736843Y-138202177D01*
X43733221Y-138179824D01*
X43731005Y-138174208D01*
X43731723Y-138170575D01*
X43730500Y-138163024D01*
X43730500Y-134735782D01*
X43750185Y-134668743D01*
X43766819Y-134648101D01*
X48378102Y-130036819D01*
X48439425Y-130003334D01*
X48465783Y-130000500D01*
X54098542Y-130000500D01*
X54111238Y-129997974D01*
X54195188Y-129981275D01*
X54291836Y-129962051D01*
X54363004Y-129932572D01*
X54473914Y-129886632D01*
X54637782Y-129777139D01*
X54777139Y-129637782D01*
X54777140Y-129637780D01*
X54784206Y-129630714D01*
X54784209Y-129630710D01*
X57437778Y-126977141D01*
X57437782Y-126977139D01*
X57577139Y-126837782D01*
X57686632Y-126673914D01*
X57762051Y-126491835D01*
X57769275Y-126455521D01*
X57800500Y-126298540D01*
X57800500Y-126101460D01*
X57800500Y-122024500D01*
X57820185Y-121957461D01*
X57872989Y-121911706D01*
X57924500Y-121900500D01*
X58874280Y-121900500D01*
X58941319Y-121920185D01*
X58987074Y-121972989D01*
X58997018Y-122042147D01*
X58990462Y-122067834D01*
X58983608Y-122086208D01*
X58977201Y-122145806D01*
X58977201Y-122145813D01*
X58977200Y-122145825D01*
X58977200Y-124241560D01*
X58977201Y-124241566D01*
X58983608Y-124301173D01*
X59028061Y-124420357D01*
X59033045Y-124490049D01*
X59028061Y-124507023D01*
X58983608Y-124626207D01*
X58977201Y-124685806D01*
X58977201Y-124685813D01*
X58977200Y-124685825D01*
X58977200Y-126781560D01*
X58977201Y-126781566D01*
X58983608Y-126841173D01*
X59028061Y-126960357D01*
X59033045Y-127030049D01*
X59028061Y-127047023D01*
X58983608Y-127166207D01*
X58977201Y-127225806D01*
X58977201Y-127225813D01*
X58977200Y-127225825D01*
X58977200Y-129321560D01*
X58977201Y-129321566D01*
X58983608Y-129381173D01*
X59028061Y-129500357D01*
X59033045Y-129570049D01*
X59028061Y-129587023D01*
X58983608Y-129706207D01*
X58977201Y-129765806D01*
X58977201Y-129765813D01*
X58977200Y-129765825D01*
X58977200Y-131861560D01*
X58977201Y-131861566D01*
X58983608Y-131921173D01*
X59028061Y-132040357D01*
X59029865Y-132065585D01*
X59035708Y-132090195D01*
X59032671Y-132104820D01*
X59033045Y-132110049D01*
X59028860Y-132124818D01*
X59028463Y-132125945D01*
X58983609Y-132246207D01*
X58982475Y-132256749D01*
X58977705Y-132270318D01*
X58965360Y-132287475D01*
X58957271Y-132307002D01*
X58945364Y-132315267D01*
X58936899Y-132327034D01*
X58917239Y-132334793D01*
X58899877Y-132346847D01*
X58877524Y-132350468D01*
X58871908Y-132352685D01*
X58868275Y-132351966D01*
X58860724Y-132353190D01*
X58582375Y-132353190D01*
X58582355Y-132353189D01*
X58576241Y-132353189D01*
X58379160Y-132353189D01*
X58379157Y-132353189D01*
X58185872Y-132391636D01*
X58185864Y-132391638D01*
X58003788Y-132467056D01*
X58003779Y-132467061D01*
X57839919Y-132576549D01*
X57839915Y-132576552D01*
X55160151Y-135256318D01*
X54362220Y-136054249D01*
X54362218Y-136054251D01*
X54292538Y-136123930D01*
X54222859Y-136193609D01*
X54113371Y-136357469D01*
X54113364Y-136357482D01*
X54037950Y-136539550D01*
X54037947Y-136539560D01*
X53999500Y-136732846D01*
X53999500Y-144803023D01*
X53979815Y-144870062D01*
X53927011Y-144915817D01*
X53899865Y-144923266D01*
X53900068Y-144924124D01*
X53892520Y-144925907D01*
X53757671Y-144976202D01*
X53757664Y-144976206D01*
X53642455Y-145062452D01*
X53642452Y-145062455D01*
X53556206Y-145177664D01*
X53556202Y-145177671D01*
X53505908Y-145312517D01*
X53504126Y-145320062D01*
X53501853Y-145319525D01*
X53479571Y-145373312D01*
X53422177Y-145413157D01*
X53383024Y-145419500D01*
X50950310Y-145419500D01*
X50883271Y-145399815D01*
X50837516Y-145347011D01*
X50830066Y-145319865D01*
X50829209Y-145320068D01*
X50827425Y-145312520D01*
X50777130Y-145177671D01*
X50777126Y-145177664D01*
X50690880Y-145062455D01*
X50690877Y-145062452D01*
X50575668Y-144976206D01*
X50575661Y-144976202D01*
X50440815Y-144925908D01*
X50440816Y-144925908D01*
X50381216Y-144919501D01*
X50381214Y-144919500D01*
X50381206Y-144919500D01*
X50381197Y-144919500D01*
X48285462Y-144919500D01*
X48285456Y-144919501D01*
X48225849Y-144925908D01*
X48091004Y-144976202D01*
X48090997Y-144976206D01*
X47975788Y-145062452D01*
X47975785Y-145062455D01*
X47889539Y-145177664D01*
X47889535Y-145177671D01*
X47839241Y-145312517D01*
X47837459Y-145320062D01*
X47835186Y-145319525D01*
X47812904Y-145373312D01*
X47755510Y-145413157D01*
X47716357Y-145419500D01*
X45283644Y-145419500D01*
X45216605Y-145399815D01*
X45170850Y-145347011D01*
X45163400Y-145319865D01*
X45162543Y-145320068D01*
X45160759Y-145312520D01*
X45110464Y-145177671D01*
X45110460Y-145177664D01*
X45024214Y-145062455D01*
X45024211Y-145062452D01*
X44909002Y-144976206D01*
X44908995Y-144976202D01*
X44774149Y-144925908D01*
X44774150Y-144925908D01*
X44714550Y-144919501D01*
X44714548Y-144919500D01*
X44714540Y-144919500D01*
X44714531Y-144919500D01*
X42618796Y-144919500D01*
X42618790Y-144919501D01*
X42559183Y-144925908D01*
X42424338Y-144976202D01*
X42424331Y-144976206D01*
X42309122Y-145062452D01*
X42309119Y-145062455D01*
X42222873Y-145177664D01*
X42222869Y-145177671D01*
X42172575Y-145312517D01*
X42170793Y-145320062D01*
X42168520Y-145319525D01*
X42146238Y-145373312D01*
X42088844Y-145413157D01*
X42049691Y-145419500D01*
X39616977Y-145419500D01*
X39549938Y-145399815D01*
X39504183Y-145347011D01*
X39496733Y-145319865D01*
X39495876Y-145320068D01*
X39494092Y-145312520D01*
X39443797Y-145177671D01*
X39443793Y-145177664D01*
X39357547Y-145062455D01*
X39357544Y-145062452D01*
X39242335Y-144976206D01*
X39242328Y-144976202D01*
X39107482Y-144925908D01*
X39107483Y-144925908D01*
X39047883Y-144919501D01*
X39047881Y-144919500D01*
X39047873Y-144919500D01*
X39047864Y-144919500D01*
X36952129Y-144919500D01*
X36952123Y-144919501D01*
X36892516Y-144925908D01*
X36757671Y-144976202D01*
X36757664Y-144976206D01*
X36642455Y-145062452D01*
X36642452Y-145062455D01*
X36556206Y-145177664D01*
X36556202Y-145177671D01*
X36505908Y-145312517D01*
X36502200Y-145347011D01*
X36499501Y-145372123D01*
X36499500Y-145372135D01*
X34000500Y-145372135D01*
X34000500Y-114952135D01*
X35959500Y-114952135D01*
X35959500Y-117047870D01*
X35959501Y-117047876D01*
X35965908Y-117107483D01*
X36016202Y-117242328D01*
X36016206Y-117242335D01*
X36102452Y-117357544D01*
X36102455Y-117357547D01*
X36217664Y-117443793D01*
X36217671Y-117443797D01*
X36352517Y-117494091D01*
X36360062Y-117495874D01*
X36359523Y-117498151D01*
X36413287Y-117520408D01*
X36453147Y-117577793D01*
X36459500Y-117616975D01*
X36459500Y-120805285D01*
X36451682Y-120848618D01*
X36435308Y-120892517D01*
X36428901Y-120952116D01*
X36428901Y-120952123D01*
X36428900Y-120952135D01*
X36428900Y-123047870D01*
X36428901Y-123047876D01*
X36435308Y-123107483D01*
X36485602Y-123242328D01*
X36485606Y-123242335D01*
X36571852Y-123357544D01*
X36571855Y-123357547D01*
X36687064Y-123443793D01*
X36687071Y-123443797D01*
X36821917Y-123494091D01*
X36821916Y-123494091D01*
X36828844Y-123494835D01*
X36881527Y-123500500D01*
X38977272Y-123500499D01*
X39036883Y-123494091D01*
X39171731Y-123443796D01*
X39286946Y-123357546D01*
X39373196Y-123242331D01*
X39423491Y-123107483D01*
X39429900Y-123047873D01*
X39429899Y-120952128D01*
X39423491Y-120892517D01*
X39389527Y-120801456D01*
X39373197Y-120757671D01*
X39373193Y-120757664D01*
X39286947Y-120642455D01*
X39286944Y-120642452D01*
X39171735Y-120556206D01*
X39171728Y-120556202D01*
X39036882Y-120505908D01*
X39036883Y-120505908D01*
X38977283Y-120499501D01*
X38977281Y-120499500D01*
X38977273Y-120499500D01*
X38977265Y-120499500D01*
X38584500Y-120499500D01*
X38517461Y-120479815D01*
X38471706Y-120427011D01*
X38460500Y-120375500D01*
X38460500Y-117616976D01*
X38480185Y-117549937D01*
X38532989Y-117504182D01*
X38543371Y-117499996D01*
X38556943Y-117495223D01*
X38567483Y-117494091D01*
X38687760Y-117449230D01*
X38688871Y-117448840D01*
X38722620Y-117447066D01*
X38756358Y-117444654D01*
X38758207Y-117445196D01*
X38758645Y-117445174D01*
X38759191Y-117445485D01*
X38773329Y-117449636D01*
X38892517Y-117494091D01*
X38892516Y-117494091D01*
X38899444Y-117494835D01*
X38952127Y-117500500D01*
X40034216Y-117500499D01*
X40101255Y-117520184D01*
X40121897Y-117536818D01*
X40397781Y-117812701D01*
X40431266Y-117874024D01*
X40434100Y-117900382D01*
X40434100Y-120383023D01*
X40414415Y-120450062D01*
X40361611Y-120495817D01*
X40334465Y-120503266D01*
X40334668Y-120504124D01*
X40327120Y-120505907D01*
X40192271Y-120556202D01*
X40192264Y-120556206D01*
X40077055Y-120642452D01*
X40077052Y-120642455D01*
X39990806Y-120757664D01*
X39990802Y-120757671D01*
X39940508Y-120892517D01*
X39934101Y-120952116D01*
X39934101Y-120952123D01*
X39934100Y-120952135D01*
X39934100Y-123047870D01*
X39934101Y-123047876D01*
X39940508Y-123107483D01*
X39990802Y-123242328D01*
X39990806Y-123242335D01*
X40077052Y-123357544D01*
X40077055Y-123357547D01*
X40192264Y-123443793D01*
X40192271Y-123443797D01*
X40327117Y-123494091D01*
X40327116Y-123494091D01*
X40334044Y-123494835D01*
X40386727Y-123500500D01*
X42482472Y-123500499D01*
X42542083Y-123494091D01*
X42676931Y-123443796D01*
X42792146Y-123357546D01*
X42878396Y-123242331D01*
X42928691Y-123107483D01*
X42935100Y-123047873D01*
X42935099Y-120952128D01*
X42928691Y-120892517D01*
X42894727Y-120801456D01*
X42878397Y-120757671D01*
X42878393Y-120757664D01*
X42792147Y-120642455D01*
X42792144Y-120642452D01*
X42676935Y-120556206D01*
X42676928Y-120556202D01*
X42542082Y-120505908D01*
X42534538Y-120504126D01*
X42535074Y-120501853D01*
X42481288Y-120479571D01*
X42441443Y-120422177D01*
X42435100Y-120383024D01*
X42435100Y-117336056D01*
X42419543Y-117257853D01*
X42413294Y-117226436D01*
X42396651Y-117142764D01*
X42360853Y-117056340D01*
X42358617Y-117050943D01*
X42358616Y-117050938D01*
X42321235Y-116960692D01*
X42321228Y-116960679D01*
X42211740Y-116796819D01*
X42206538Y-116791617D01*
X42072382Y-116657461D01*
X42072381Y-116657460D01*
X41536818Y-116121897D01*
X41503333Y-116060574D01*
X41500499Y-116034216D01*
X41500499Y-114952129D01*
X41500498Y-114952123D01*
X41500497Y-114952116D01*
X41494091Y-114892517D01*
X41443796Y-114757669D01*
X41443795Y-114757668D01*
X41443793Y-114757664D01*
X41357547Y-114642455D01*
X41357544Y-114642452D01*
X41242335Y-114556206D01*
X41242328Y-114556202D01*
X41107482Y-114505908D01*
X41107483Y-114505908D01*
X41047883Y-114499501D01*
X41047881Y-114499500D01*
X41047873Y-114499500D01*
X41047864Y-114499500D01*
X38952129Y-114499500D01*
X38952123Y-114499501D01*
X38892516Y-114505908D01*
X38773333Y-114550361D01*
X38703641Y-114555345D01*
X38686667Y-114550361D01*
X38567482Y-114505908D01*
X38567483Y-114505908D01*
X38507883Y-114499501D01*
X38507881Y-114499500D01*
X38507873Y-114499500D01*
X38507864Y-114499500D01*
X36412129Y-114499500D01*
X36412123Y-114499501D01*
X36352516Y-114505908D01*
X36217671Y-114556202D01*
X36217664Y-114556206D01*
X36102455Y-114642452D01*
X36102452Y-114642455D01*
X36016206Y-114757664D01*
X36016202Y-114757671D01*
X35965908Y-114892517D01*
X35959501Y-114952116D01*
X35959501Y-114952123D01*
X35959500Y-114952135D01*
X34000500Y-114952135D01*
X34000500Y-112624500D01*
X34020185Y-112557461D01*
X34072989Y-112511706D01*
X34124500Y-112500500D01*
X107275904Y-112500500D01*
X107288827Y-112504294D01*
G37*
%TD.AperFunction*%
%TD*%
M02*
