M48
; DRILL file {KiCad 9.0.7-9.0.7~ubuntu24.04.1} date 2026-03-17T11:58:45-0600
; FORMAT={-:-/ absolute / metric / decimal}
; #@! TF.CreationDate,2026-03-17T11:58:45-06:00
; #@! TF.GenerationSoftware,Kicad,Pcbnew,9.0.7-9.0.7~ubuntu24.04.1
; #@! TF.FileFunction,Plated,1,2,PTH
FMAT,2
METRIC
; #@! TA.AperFunction,Plated,PTH,ComponentDrill
T1C0.700
; #@! TA.AperFunction,Plated,PTH,ComponentDrill
T2C0.800
; #@! TA.AperFunction,Plated,PTH,ComponentDrill
T3C1.000
; #@! TA.AperFunction,Plated,PTH,ComponentDrill
T4C1.016
%
G90
G05
T1
X142.91Y-110.35
X142.91Y-112.89
X157.98Y-107.67
X163.06Y-107.67
T2
X135.13Y-92.55
X135.13Y-102.71
T3
X142.91Y-105.27
X142.91Y-107.81
X145.179Y-78.58
X145.19Y-71.7
X147.44Y-96.36
X147.73Y-71.7
X148.685Y-78.58
X149.98Y-96.36
X152.52Y-96.36
X153.815Y-78.58
X153.88Y-105.16
X153.88Y-107.7
X153.88Y-110.24
X153.88Y-112.78
X154.24Y-71.67
X155.06Y-96.36
X156.78Y-71.67
X157.321Y-78.58
T4
X89.796Y-113.798
X92.336Y-113.798
X94.876Y-113.798
X97.416Y-113.798
X98.94Y-65.538
X99.956Y-113.798
X101.48Y-65.538
X102.496Y-113.798
X104.02Y-65.538
X105.036Y-113.798
X106.56Y-65.538
X107.576Y-113.798
X109.1Y-65.538
X110.116Y-113.798
X111.64Y-65.538
X112.656Y-113.798
X114.18Y-65.538
X116.72Y-65.538
X116.72Y-113.798
X119.26Y-113.798
X121.8Y-65.538
X121.8Y-113.798
X124.34Y-65.538
X124.34Y-113.798
X126.88Y-65.538
X126.88Y-113.798
X129.42Y-65.538
X129.42Y-113.798
X131.96Y-65.538
X131.96Y-113.798
X134.5Y-65.538
X134.5Y-113.798
M30
