%TF.GenerationSoftware,KiCad,Pcbnew,9.0.7-9.0.7~ubuntu24.04.1*%
%TF.CreationDate,2026-03-17T11:58:54-06:00*%
%TF.ProjectId,ForwardCEWBPCBDesign,466f7277-6172-4644-9345-574250434244,rev?*%
%TF.SameCoordinates,Original*%
%TF.FileFunction,Copper,L2,Bot*%
%TF.FilePolarity,Positive*%
%FSLAX46Y46*%
G04 Gerber Fmt 4.6, Leading zero omitted, Abs format (unit mm)*
G04 Created by KiCad (PCBNEW 9.0.7-9.0.7~ubuntu24.04.1) date 2026-03-17 11:58:54*
%MOMM*%
%LPD*%
G01*
G04 APERTURE LIST*
%TA.AperFunction,ComponentPad*%
%ADD10R,2.000000X2.000000*%
%TD*%
%TA.AperFunction,ComponentPad*%
%ADD11R,1.700000X1.700000*%
%TD*%
%TA.AperFunction,Conductor*%
%ADD12C,1.000000*%
%TD*%
G04 APERTURE END LIST*
D10*
%TO.P,JP3,1,A*%
%TO.N,/D12*%
X157980000Y-107670000D03*
%TO.P,JP3,2,B*%
X163060000Y-107670000D03*
%TD*%
%TO.P,JP4,1,A*%
%TO.N,+5C*%
X135130000Y-102710000D03*
%TO.P,JP4,2,B*%
X135130000Y-92550000D03*
%TD*%
%TO.P,DRV1,1,In2*%
%TO.N,/In2*%
X147440000Y-96360000D03*
%TO.P,DRV1,2,In1*%
%TO.N,/In1*%
X149980000Y-96360000D03*
%TO.P,DRV1,3,Vm*%
%TO.N,unconnected-(DRV1-Vm-Pad3)*%
X152520000Y-96360000D03*
%TO.P,DRV1,4,GND*%
%TO.N,GND*%
X155060000Y-96360000D03*
%TO.P,DRV1,5,PW_-*%
X157320600Y-78580000D03*
%TO.P,DRV1,6,PW_+*%
%TO.N,Net-(DRV1-PW_+)*%
X153815400Y-78580000D03*
%TO.P,DRV1,7,Out_1*%
%TO.N,Net-(DRV1-Out_1)*%
X148684600Y-78580000D03*
%TO.P,DRV1,8,Out_2*%
%TO.N,Net-(DRV1-Out_2)*%
X145179400Y-78580000D03*
%TD*%
%TO.P,A1,3V3,3V3*%
%TO.N,unconnected-(A1-Pad3V3)*%
X106560000Y-65538010D03*
%TO.P,A1,5V,5V*%
%TO.N,+5C*%
X109100000Y-65538010D03*
%TO.P,A1,A0,A0*%
%TO.N,unconnected-(A1-PadA0)*%
X121800010Y-65538010D03*
%TO.P,A1,A1,A1*%
%TO.N,unconnected-(A1-PadA1)*%
X124340010Y-65538010D03*
%TO.P,A1,A2,A2*%
%TO.N,unconnected-(A1-PadA2)*%
X126880010Y-65538010D03*
%TO.P,A1,A3,A3*%
%TO.N,unconnected-(A1-PadA3)*%
X129420010Y-65538010D03*
%TO.P,A1,A4,A4*%
%TO.N,unconnected-(A1-PadA4)*%
X131960010Y-65538010D03*
%TO.P,A1,A4_SDA,AD4_SDA*%
%TO.N,unconnected-(A1D-AD4_SDA-PadA4_SDA)*%
X92336010Y-113798010D03*
%TO.P,A1,A5,A5*%
%TO.N,unconnected-(A1-PadA5)*%
X134500010Y-65538010D03*
%TO.P,A1,A5_SCL,AD5_SCL*%
%TO.N,unconnected-(A1D-AD5_SCL-PadA5_SCL)*%
X89796010Y-113798010D03*
%TO.P,A1,AREF,AREF*%
%TO.N,unconnected-(A1-PadAREF)*%
X94876010Y-113798010D03*
%TO.P,A1,D0,D0*%
%TO.N,unconnected-(A1-PadD0)*%
X134500010Y-113798010D03*
%TO.P,A1,D1,D1*%
%TO.N,unconnected-(A1-PadD1)*%
X131960010Y-113798010D03*
%TO.P,A1,D2,D2*%
%TO.N,Net-(MainEncoder1-Pin_2)*%
X129420010Y-113798010D03*
%TO.P,A1,D3,D3*%
%TO.N,Net-(MainEncoder1-Pin_4)*%
X126880010Y-113798010D03*
%TO.P,A1,D4,D4*%
%TO.N,unconnected-(A1-PadD4)*%
X124340010Y-113798010D03*
%TO.P,A1,D5,D5*%
%TO.N,unconnected-(A1-PadD5)*%
X121800010Y-113798010D03*
%TO.P,A1,D6,D6*%
%TO.N,unconnected-(A1-PadD6)*%
X119260010Y-113798010D03*
%TO.P,A1,D7,D7*%
%TO.N,unconnected-(A1-PadD7)*%
X116720010Y-113798010D03*
%TO.P,A1,D8,D8*%
%TO.N,unconnected-(A1-PadD8)*%
X112656000Y-113798010D03*
%TO.P,A1,D9,D9*%
%TO.N,/In1*%
X110116000Y-113798010D03*
%TO.P,A1,D10,D10*%
%TO.N,/In2*%
X107576000Y-113798010D03*
%TO.P,A1,D11,D11*%
%TO.N,unconnected-(A1-PadD11)*%
X105036001Y-113798010D03*
%TO.P,A1,D12,D12*%
%TO.N,/D12*%
X102496000Y-113798010D03*
%TO.P,A1,D13,D13*%
%TO.N,/D13*%
X99956000Y-113798010D03*
%TO.P,A1,GND_1,GND_1*%
%TO.N,unconnected-(A1-PadGND_1)*%
X114180000Y-65538010D03*
%TO.P,A1,GND_2,GND_2*%
%TO.N,GND*%
X111640000Y-65538010D03*
%TO.P,A1,GND_3,GND_3*%
X97416000Y-113798010D03*
%TO.P,A1,IOREF,IOREF*%
%TO.N,unconnected-(A1-PadIOREF)*%
X101480000Y-65538010D03*
%TO.P,A1,P1,P1*%
%TO.N,unconnected-(A1-PadP1)*%
X98940000Y-65538010D03*
%TO.P,A1,RST,RST*%
%TO.N,unconnected-(A1-PadRST)*%
X104020000Y-65538010D03*
%TO.P,A1,VIN,VIN*%
%TO.N,unconnected-(A1-PadVIN)*%
X116720010Y-65538010D03*
%TD*%
D11*
%TO.P,SecondaryEncoder1,1,Pin_1*%
%TO.N,+5C*%
X153880000Y-105160000D03*
D10*
%TO.P,SecondaryEncoder1,2,Pin_2*%
%TO.N,/D12*%
X153880000Y-107700000D03*
%TO.P,SecondaryEncoder1,3,Pin_3*%
%TO.N,GND*%
X153880000Y-110240000D03*
%TO.P,SecondaryEncoder1,4,Pin_4*%
%TO.N,/D13*%
X153880000Y-112780000D03*
%TD*%
D11*
%TO.P,MainEncoder1,1,Pin_1*%
%TO.N,+5C*%
X142910000Y-105270000D03*
D10*
%TO.P,MainEncoder1,2,Pin_2*%
%TO.N,Net-(MainEncoder1-Pin_2)*%
X142910000Y-107810000D03*
%TO.P,MainEncoder1,3,Pin_3*%
%TO.N,GND*%
X142910000Y-110350000D03*
%TO.P,MainEncoder1,4,Pin_4*%
%TO.N,Net-(MainEncoder1-Pin_4)*%
X142910000Y-112890000D03*
%TD*%
%TO.P,PowerSupply1,1,Pin_1*%
%TO.N,GND*%
X156780000Y-71670000D03*
%TO.P,PowerSupply1,2,Pin_2*%
%TO.N,Net-(DRV1-PW_+)*%
X154240000Y-71670000D03*
%TD*%
D11*
%TO.P,Motor1,1,Pin_1*%
%TO.N,Net-(DRV1-Out_1)*%
X147730000Y-71700000D03*
D10*
%TO.P,Motor1,2,Pin_2*%
%TO.N,Net-(DRV1-Out_2)*%
X145190000Y-71700000D03*
%TD*%
D12*
%TO.N,GND*%
X156910000Y-68670000D02*
X156780000Y-68800000D01*
X112431990Y-68330000D02*
X156570000Y-68330000D01*
X156780000Y-78039400D02*
X157320600Y-78580000D01*
X157720000Y-110230000D02*
X157710000Y-110240000D01*
X156780000Y-68800000D02*
X156780000Y-71670000D01*
X159940000Y-110230000D02*
X157720000Y-110230000D01*
X142910000Y-110350000D02*
X153770000Y-110350000D01*
X111640000Y-67538010D02*
X112431990Y-68330000D01*
X156570000Y-68330000D02*
X156910000Y-68670000D01*
X153770000Y-110350000D02*
X153880000Y-110240000D01*
X157710000Y-110240000D02*
X153880000Y-110240000D01*
X156780000Y-71670000D02*
X156780000Y-78039400D01*
X111640000Y-65538010D02*
X111640000Y-67538010D01*
X160280000Y-109890000D02*
X159940000Y-110230000D01*
X155060000Y-96360000D02*
X160280000Y-101580000D01*
X160280000Y-101580000D02*
X160280000Y-109890000D01*
%TO.N,+5C*%
X153880000Y-105160000D02*
X143020000Y-105160000D01*
X142910000Y-105270000D02*
X137690000Y-105270000D01*
X135130000Y-92550000D02*
X112460000Y-92550000D01*
X137690000Y-105270000D02*
X135130000Y-102710000D01*
X143020000Y-105160000D02*
X142910000Y-105270000D01*
X109100000Y-89190000D02*
X109100000Y-65538010D01*
X112460000Y-92550000D02*
X109100000Y-89190000D01*
%TO.N,Net-(DRV1-Out_2)*%
X145190000Y-78569400D02*
X145179400Y-78580000D01*
X145190000Y-71700000D02*
X145190000Y-78569400D01*
%TO.N,Net-(DRV1-Out_1)*%
X147730000Y-77625400D02*
X148684600Y-78580000D01*
X147730000Y-71700000D02*
X147730000Y-77625400D01*
%TO.N,Net-(DRV1-PW_+)*%
X154240000Y-71670000D02*
X154240000Y-78155400D01*
X154240000Y-78155400D02*
X153815400Y-78580000D01*
%TO.N,Net-(MainEncoder1-Pin_2)*%
X129420010Y-112936010D02*
X129420010Y-113798010D01*
X142910000Y-107810000D02*
X134546020Y-107810000D01*
X134546020Y-107810000D02*
X129420010Y-112936010D01*
%TO.N,/D12*%
X145191000Y-94659000D02*
X119635010Y-94659000D01*
X157950000Y-107700000D02*
X157980000Y-107670000D01*
X163060000Y-99520000D02*
X155930000Y-92390000D01*
X147460000Y-92390000D02*
X145191000Y-94659000D01*
X155930000Y-92390000D02*
X147460000Y-92390000D01*
X119635010Y-94659000D02*
X102496000Y-111798010D01*
X153880000Y-107700000D02*
X157950000Y-107700000D01*
X163060000Y-107670000D02*
X163060000Y-99520000D01*
X102496000Y-111798010D02*
X102496000Y-113798010D01*
%TO.N,Net-(MainEncoder1-Pin_4)*%
X139320000Y-116480000D02*
X127562000Y-116480000D01*
X142910000Y-112890000D02*
X139320000Y-116480000D01*
X126880010Y-115798010D02*
X126880010Y-113798010D01*
X127562000Y-116480000D02*
X126880010Y-115798010D01*
%TO.N,/In1*%
X110116000Y-111798010D02*
X110116000Y-113798010D01*
X149980000Y-99530000D02*
X122384010Y-99530000D01*
X149980000Y-96360000D02*
X149980000Y-99530000D01*
X122384010Y-99530000D02*
X110116000Y-111798010D01*
%TO.N,/D13*%
X102550000Y-118470000D02*
X99956000Y-115876000D01*
X148190000Y-118470000D02*
X102550000Y-118470000D01*
X99956000Y-115876000D02*
X99956000Y-113798010D01*
X153880000Y-112780000D02*
X148190000Y-118470000D01*
%TO.N,/In2*%
X107576000Y-111798010D02*
X107576000Y-113798010D01*
X147440000Y-96360000D02*
X123014010Y-96360000D01*
X123014010Y-96360000D02*
X107576000Y-111798010D01*
%TD*%
%TA.AperFunction,Conductor*%
%TO.N,GND*%
G36*
X165652539Y-63160185D02*
G01*
X165698294Y-63212989D01*
X165709500Y-63264500D01*
X165709500Y-120185500D01*
X165689815Y-120252539D01*
X165637011Y-120298294D01*
X165585500Y-120309500D01*
X85824500Y-120309500D01*
X85757461Y-120289815D01*
X85711706Y-120237011D01*
X85700500Y-120185500D01*
X85700500Y-112750145D01*
X88295510Y-112750145D01*
X88295510Y-114845880D01*
X88295511Y-114845886D01*
X88301918Y-114905493D01*
X88352212Y-115040338D01*
X88352216Y-115040345D01*
X88438462Y-115155554D01*
X88438465Y-115155557D01*
X88553674Y-115241803D01*
X88553681Y-115241807D01*
X88688527Y-115292101D01*
X88688526Y-115292101D01*
X88695454Y-115292845D01*
X88748137Y-115298510D01*
X90843882Y-115298509D01*
X90903493Y-115292101D01*
X91022677Y-115247647D01*
X91092368Y-115242664D01*
X91109339Y-115247646D01*
X91228527Y-115292101D01*
X91228526Y-115292101D01*
X91235454Y-115292845D01*
X91288137Y-115298510D01*
X93383882Y-115298509D01*
X93443493Y-115292101D01*
X93562677Y-115247647D01*
X93632368Y-115242664D01*
X93649339Y-115247646D01*
X93768527Y-115292101D01*
X93768526Y-115292101D01*
X93775454Y-115292845D01*
X93828137Y-115298510D01*
X95923882Y-115298509D01*
X95983493Y-115292101D01*
X96118341Y-115241806D01*
X96233556Y-115155556D01*
X96319806Y-115040341D01*
X96370101Y-114905493D01*
X96376510Y-114845883D01*
X96376509Y-112750138D01*
X96370101Y-112690527D01*
X96319806Y-112555679D01*
X96319805Y-112555678D01*
X96319803Y-112555674D01*
X96233557Y-112440465D01*
X96233554Y-112440462D01*
X96118345Y-112354216D01*
X96118338Y-112354212D01*
X95983492Y-112303918D01*
X95983493Y-112303918D01*
X95923893Y-112297511D01*
X95923891Y-112297510D01*
X95923883Y-112297510D01*
X95923874Y-112297510D01*
X93828139Y-112297510D01*
X93828133Y-112297511D01*
X93768526Y-112303918D01*
X93649343Y-112348371D01*
X93579651Y-112353355D01*
X93562677Y-112348371D01*
X93443492Y-112303918D01*
X93443493Y-112303918D01*
X93383893Y-112297511D01*
X93383891Y-112297510D01*
X93383883Y-112297510D01*
X93383874Y-112297510D01*
X91288139Y-112297510D01*
X91288133Y-112297511D01*
X91228526Y-112303918D01*
X91109343Y-112348371D01*
X91039651Y-112353355D01*
X91022677Y-112348371D01*
X90903492Y-112303918D01*
X90903493Y-112303918D01*
X90843893Y-112297511D01*
X90843891Y-112297510D01*
X90843883Y-112297510D01*
X90843874Y-112297510D01*
X88748139Y-112297510D01*
X88748133Y-112297511D01*
X88688526Y-112303918D01*
X88553681Y-112354212D01*
X88553674Y-112354216D01*
X88438465Y-112440462D01*
X88438462Y-112440465D01*
X88352216Y-112555674D01*
X88352212Y-112555681D01*
X88301918Y-112690527D01*
X88295511Y-112750126D01*
X88295511Y-112750133D01*
X88295510Y-112750145D01*
X85700500Y-112750145D01*
X85700500Y-64490145D01*
X97439500Y-64490145D01*
X97439500Y-66585880D01*
X97439501Y-66585886D01*
X97445908Y-66645493D01*
X97496202Y-66780338D01*
X97496206Y-66780345D01*
X97582452Y-66895554D01*
X97582455Y-66895557D01*
X97697664Y-66981803D01*
X97697671Y-66981807D01*
X97832517Y-67032101D01*
X97832516Y-67032101D01*
X97839444Y-67032845D01*
X97892127Y-67038510D01*
X99987872Y-67038509D01*
X100047483Y-67032101D01*
X100166667Y-66987647D01*
X100236358Y-66982664D01*
X100253329Y-66987646D01*
X100372517Y-67032101D01*
X100372516Y-67032101D01*
X100379444Y-67032845D01*
X100432127Y-67038510D01*
X102527872Y-67038509D01*
X102587483Y-67032101D01*
X102706667Y-66987647D01*
X102776358Y-66982664D01*
X102793329Y-66987646D01*
X102912517Y-67032101D01*
X102912516Y-67032101D01*
X102919444Y-67032845D01*
X102972127Y-67038510D01*
X105067872Y-67038509D01*
X105127483Y-67032101D01*
X105246667Y-66987647D01*
X105316358Y-66982664D01*
X105333329Y-66987646D01*
X105452517Y-67032101D01*
X105452516Y-67032101D01*
X105459444Y-67032845D01*
X105512127Y-67038510D01*
X107607872Y-67038509D01*
X107667483Y-67032101D01*
X107786667Y-66987647D01*
X107811896Y-66985843D01*
X107836505Y-66980001D01*
X107851130Y-66983037D01*
X107856358Y-66982664D01*
X107871128Y-66986849D01*
X107872208Y-66987228D01*
X107992517Y-67032101D01*
X108003063Y-67033234D01*
X108016628Y-67038004D01*
X108033773Y-67050339D01*
X108053287Y-67058418D01*
X108061564Y-67070334D01*
X108073344Y-67078810D01*
X108081098Y-67098457D01*
X108093147Y-67115803D01*
X108096774Y-67138174D01*
X108098995Y-67143801D01*
X108098275Y-67147435D01*
X108099500Y-67154985D01*
X108099500Y-89288541D01*
X108099500Y-89288543D01*
X108099499Y-89288543D01*
X108137947Y-89481829D01*
X108137950Y-89481839D01*
X108213364Y-89663907D01*
X108213371Y-89663920D01*
X108322859Y-89827780D01*
X108322860Y-89827781D01*
X108322861Y-89827782D01*
X108462218Y-89967139D01*
X108462219Y-89967139D01*
X108469286Y-89974206D01*
X108469285Y-89974206D01*
X108469289Y-89974209D01*
X111822215Y-93327137D01*
X111822219Y-93327140D01*
X111986079Y-93436628D01*
X111986085Y-93436631D01*
X111986086Y-93436632D01*
X112168165Y-93512052D01*
X112361455Y-93550500D01*
X112361458Y-93550501D01*
X112361460Y-93550501D01*
X112564655Y-93550501D01*
X112564675Y-93550500D01*
X119084371Y-93550500D01*
X119151410Y-93570185D01*
X119197165Y-93622989D01*
X119207109Y-93692147D01*
X119178084Y-93755703D01*
X119153262Y-93777602D01*
X118997228Y-93881860D01*
X118997224Y-93881863D01*
X106116966Y-106762123D01*
X101858220Y-111020869D01*
X101858218Y-111020871D01*
X101788538Y-111090550D01*
X101718859Y-111160229D01*
X101609371Y-111324089D01*
X101609364Y-111324102D01*
X101533950Y-111506170D01*
X101533947Y-111506180D01*
X101495500Y-111699466D01*
X101495500Y-112181033D01*
X101475815Y-112248072D01*
X101423011Y-112293827D01*
X101412629Y-112298013D01*
X101399051Y-112302786D01*
X101388517Y-112303919D01*
X101268286Y-112348762D01*
X101267129Y-112349169D01*
X101233377Y-112350942D01*
X101199641Y-112353355D01*
X101197791Y-112352812D01*
X101197355Y-112352835D01*
X101196809Y-112352523D01*
X101182667Y-112348371D01*
X101063482Y-112303918D01*
X101063483Y-112303918D01*
X101003883Y-112297511D01*
X101003881Y-112297510D01*
X101003873Y-112297510D01*
X101003864Y-112297510D01*
X98908129Y-112297510D01*
X98908123Y-112297511D01*
X98848516Y-112303918D01*
X98713671Y-112354212D01*
X98713664Y-112354216D01*
X98598455Y-112440462D01*
X98598452Y-112440465D01*
X98512206Y-112555674D01*
X98512202Y-112555681D01*
X98461908Y-112690527D01*
X98455501Y-112750126D01*
X98455501Y-112750133D01*
X98455500Y-112750145D01*
X98455500Y-114845880D01*
X98455501Y-114845886D01*
X98461908Y-114905493D01*
X98512202Y-115040338D01*
X98512206Y-115040345D01*
X98598452Y-115155554D01*
X98598455Y-115155557D01*
X98713664Y-115241803D01*
X98713671Y-115241807D01*
X98848517Y-115292101D01*
X98856062Y-115293884D01*
X98855523Y-115296161D01*
X98909287Y-115318418D01*
X98949147Y-115375803D01*
X98955500Y-115414985D01*
X98955500Y-115974541D01*
X98955500Y-115974543D01*
X98955499Y-115974543D01*
X98993947Y-116167829D01*
X98993950Y-116167839D01*
X99069364Y-116349907D01*
X99069371Y-116349920D01*
X99178860Y-116513781D01*
X99178863Y-116513785D01*
X99322537Y-116657459D01*
X99322559Y-116657479D01*
X101769735Y-119104655D01*
X101769764Y-119104686D01*
X101912214Y-119247136D01*
X101912218Y-119247139D01*
X102076079Y-119356628D01*
X102076092Y-119356635D01*
X102204833Y-119409961D01*
X102247744Y-119427735D01*
X102258164Y-119432051D01*
X102354812Y-119451275D01*
X102403135Y-119460887D01*
X102451458Y-119470500D01*
X102451459Y-119470500D01*
X148288542Y-119470500D01*
X148319566Y-119464328D01*
X148385188Y-119451275D01*
X148481836Y-119432051D01*
X148535165Y-119409961D01*
X148663914Y-119356632D01*
X148827782Y-119247139D01*
X148967139Y-119107782D01*
X148967140Y-119107779D01*
X148974206Y-119100714D01*
X148974209Y-119100710D01*
X153758101Y-114316818D01*
X153819424Y-114283333D01*
X153845782Y-114280499D01*
X154927871Y-114280499D01*
X154927872Y-114280499D01*
X154987483Y-114274091D01*
X155122331Y-114223796D01*
X155237546Y-114137546D01*
X155323796Y-114022331D01*
X155374091Y-113887483D01*
X155380500Y-113827873D01*
X155380499Y-111732128D01*
X155374091Y-111672517D01*
X155364823Y-111647669D01*
X155323797Y-111537671D01*
X155323793Y-111537664D01*
X155237547Y-111422455D01*
X155237544Y-111422452D01*
X155122335Y-111336206D01*
X155122328Y-111336202D01*
X154987482Y-111285908D01*
X154987483Y-111285908D01*
X154927883Y-111279501D01*
X154927881Y-111279500D01*
X154927873Y-111279500D01*
X154927864Y-111279500D01*
X152832129Y-111279500D01*
X152832123Y-111279501D01*
X152772516Y-111285908D01*
X152637671Y-111336202D01*
X152637664Y-111336206D01*
X152522455Y-111422452D01*
X152522452Y-111422455D01*
X152436206Y-111537664D01*
X152436202Y-111537671D01*
X152385908Y-111672517D01*
X152383011Y-111699469D01*
X152379501Y-111732123D01*
X152379500Y-111732135D01*
X152379500Y-112814217D01*
X152359815Y-112881256D01*
X152343181Y-112901898D01*
X147811899Y-117433181D01*
X147750576Y-117466666D01*
X147724218Y-117469500D01*
X140044784Y-117469500D01*
X140023538Y-117463261D01*
X140001452Y-117461682D01*
X139990668Y-117453609D01*
X139977745Y-117449815D01*
X139963246Y-117433082D01*
X139945518Y-117419812D01*
X139940809Y-117407189D01*
X139931990Y-117397011D01*
X139928838Y-117375095D01*
X139921100Y-117354348D01*
X139923963Y-117341185D01*
X139922046Y-117327853D01*
X139931244Y-117307710D01*
X139935951Y-117286075D01*
X139949221Y-117268346D01*
X139951071Y-117264297D01*
X139957098Y-117257824D01*
X139957102Y-117257819D01*
X139957782Y-117257139D01*
X140097139Y-117117782D01*
X140097140Y-117117779D01*
X142788102Y-114426818D01*
X142849425Y-114393333D01*
X142875783Y-114390499D01*
X143957871Y-114390499D01*
X143957872Y-114390499D01*
X144017483Y-114384091D01*
X144152331Y-114333796D01*
X144267546Y-114247546D01*
X144353796Y-114132331D01*
X144404091Y-113997483D01*
X144410500Y-113937873D01*
X144410499Y-111842128D01*
X144404091Y-111782517D01*
X144385295Y-111732123D01*
X144353797Y-111647671D01*
X144353793Y-111647664D01*
X144267547Y-111532455D01*
X144267544Y-111532452D01*
X144152335Y-111446206D01*
X144152328Y-111446202D01*
X144017482Y-111395908D01*
X144017483Y-111395908D01*
X143957883Y-111389501D01*
X143957881Y-111389500D01*
X143957873Y-111389500D01*
X143957864Y-111389500D01*
X141862129Y-111389500D01*
X141862123Y-111389501D01*
X141802516Y-111395908D01*
X141667671Y-111446202D01*
X141667664Y-111446206D01*
X141552455Y-111532452D01*
X141552452Y-111532455D01*
X141466206Y-111647664D01*
X141466202Y-111647671D01*
X141415908Y-111782517D01*
X141409501Y-111842116D01*
X141409501Y-111842123D01*
X141409500Y-111842135D01*
X141409500Y-112924216D01*
X141389815Y-112991255D01*
X141373180Y-113011897D01*
X139539187Y-114845893D01*
X138941899Y-115443181D01*
X138880576Y-115476666D01*
X138854218Y-115479500D01*
X135792346Y-115479500D01*
X135725307Y-115459815D01*
X135679552Y-115407011D01*
X135669608Y-115337853D01*
X135698633Y-115274297D01*
X135735861Y-115248448D01*
X135734556Y-115246057D01*
X135742336Y-115241807D01*
X135742341Y-115241806D01*
X135857556Y-115155556D01*
X135943806Y-115040341D01*
X135994101Y-114905493D01*
X136000510Y-114845883D01*
X136000509Y-112750138D01*
X135994101Y-112690527D01*
X135943806Y-112555679D01*
X135943805Y-112555678D01*
X135943803Y-112555674D01*
X135857557Y-112440465D01*
X135857554Y-112440462D01*
X135742345Y-112354216D01*
X135742338Y-112354212D01*
X135607492Y-112303918D01*
X135607493Y-112303918D01*
X135547893Y-112297511D01*
X135547891Y-112297510D01*
X135547883Y-112297510D01*
X135547874Y-112297510D01*
X133452139Y-112297510D01*
X133452133Y-112297511D01*
X133392526Y-112303918D01*
X133273343Y-112348371D01*
X133203651Y-112353355D01*
X133186677Y-112348371D01*
X133067492Y-112303918D01*
X133067493Y-112303918D01*
X133007893Y-112297511D01*
X133007891Y-112297510D01*
X133007883Y-112297510D01*
X133007875Y-112297510D01*
X131772791Y-112297510D01*
X131705752Y-112277825D01*
X131659997Y-112225021D01*
X131650053Y-112155863D01*
X131679078Y-112092307D01*
X131685110Y-112085829D01*
X134924121Y-108846819D01*
X134985444Y-108813334D01*
X135011802Y-108810500D01*
X141293023Y-108810500D01*
X141360062Y-108830185D01*
X141405817Y-108882989D01*
X141413266Y-108910134D01*
X141414124Y-108909932D01*
X141415907Y-108917479D01*
X141466202Y-109052328D01*
X141466206Y-109052335D01*
X141552452Y-109167544D01*
X141552455Y-109167547D01*
X141667664Y-109253793D01*
X141667671Y-109253797D01*
X141802517Y-109304091D01*
X141802516Y-109304091D01*
X141809444Y-109304835D01*
X141862127Y-109310500D01*
X143957872Y-109310499D01*
X144017483Y-109304091D01*
X144152331Y-109253796D01*
X144267546Y-109167546D01*
X144353796Y-109052331D01*
X144404091Y-108917483D01*
X144410500Y-108857873D01*
X144410499Y-106762128D01*
X144404091Y-106702517D01*
X144374110Y-106622135D01*
X144353797Y-106567671D01*
X144353793Y-106567664D01*
X144267548Y-106452456D01*
X144267546Y-106452455D01*
X144267546Y-106452454D01*
X144265738Y-106451100D01*
X144264385Y-106449293D01*
X144261275Y-106446183D01*
X144261722Y-106445735D01*
X144249904Y-106429947D01*
X144231220Y-106411263D01*
X144229295Y-106402416D01*
X144223870Y-106395168D01*
X144221985Y-106368809D01*
X144216369Y-106342990D01*
X144219206Y-106329946D01*
X144218887Y-106325476D01*
X144223870Y-106308509D01*
X144240426Y-106264120D01*
X144248988Y-106241166D01*
X144290859Y-106185232D01*
X144356324Y-106160816D01*
X144365169Y-106160500D01*
X152410943Y-106160500D01*
X152477982Y-106180185D01*
X152523737Y-106232989D01*
X152533681Y-106302147D01*
X152510209Y-106358810D01*
X152502725Y-106368809D01*
X152436204Y-106457668D01*
X152436202Y-106457671D01*
X152385908Y-106592517D01*
X152379501Y-106652116D01*
X152379500Y-106652135D01*
X152379500Y-108747870D01*
X152379501Y-108747876D01*
X152385908Y-108807483D01*
X152436202Y-108942328D01*
X152436206Y-108942335D01*
X152522452Y-109057544D01*
X152522455Y-109057547D01*
X152637664Y-109143793D01*
X152637671Y-109143797D01*
X152772517Y-109194091D01*
X152772516Y-109194091D01*
X152779444Y-109194835D01*
X152832127Y-109200500D01*
X154927872Y-109200499D01*
X154987483Y-109194091D01*
X155122331Y-109143796D01*
X155237546Y-109057546D01*
X155323796Y-108942331D01*
X155374091Y-108807483D01*
X155374091Y-108807481D01*
X155375874Y-108799938D01*
X155378146Y-108800474D01*
X155400429Y-108746688D01*
X155457823Y-108706843D01*
X155496976Y-108700500D01*
X156371101Y-108700500D01*
X156438140Y-108720185D01*
X156483895Y-108772989D01*
X156487283Y-108781167D01*
X156536202Y-108912328D01*
X156536206Y-108912335D01*
X156622452Y-109027544D01*
X156622455Y-109027547D01*
X156737664Y-109113793D01*
X156737671Y-109113797D01*
X156872517Y-109164091D01*
X156872516Y-109164091D01*
X156879444Y-109164835D01*
X156932127Y-109170500D01*
X159027872Y-109170499D01*
X159087483Y-109164091D01*
X159222331Y-109113796D01*
X159337546Y-109027546D01*
X159423796Y-108912331D01*
X159474091Y-108777483D01*
X159480500Y-108717873D01*
X159480499Y-106622128D01*
X159474091Y-106562517D01*
X159439141Y-106468812D01*
X159423797Y-106427671D01*
X159423793Y-106427664D01*
X159337547Y-106312455D01*
X159337544Y-106312452D01*
X159222335Y-106226206D01*
X159222328Y-106226202D01*
X159087482Y-106175908D01*
X159087483Y-106175908D01*
X159027883Y-106169501D01*
X159027881Y-106169500D01*
X159027873Y-106169500D01*
X159027864Y-106169500D01*
X156932129Y-106169500D01*
X156932123Y-106169501D01*
X156872516Y-106175908D01*
X156737671Y-106226202D01*
X156737664Y-106226206D01*
X156622455Y-106312452D01*
X156622452Y-106312455D01*
X156536206Y-106427664D01*
X156536202Y-106427671D01*
X156485910Y-106562513D01*
X156485909Y-106562517D01*
X156483087Y-106588758D01*
X156456351Y-106653306D01*
X156398959Y-106693154D01*
X156359799Y-106699500D01*
X155496977Y-106699500D01*
X155429938Y-106679815D01*
X155384183Y-106627011D01*
X155376733Y-106599865D01*
X155375876Y-106600068D01*
X155374092Y-106592520D01*
X155323797Y-106457671D01*
X155323793Y-106457664D01*
X155237548Y-106342456D01*
X155237546Y-106342455D01*
X155237546Y-106342454D01*
X155235738Y-106341100D01*
X155234385Y-106339293D01*
X155231275Y-106336183D01*
X155231722Y-106335735D01*
X155193870Y-106285168D01*
X155188887Y-106215476D01*
X155193868Y-106198513D01*
X155224091Y-106117483D01*
X155230500Y-106057873D01*
X155230499Y-104262128D01*
X155224091Y-104202517D01*
X155218986Y-104188831D01*
X155173797Y-104067671D01*
X155173793Y-104067664D01*
X155087547Y-103952455D01*
X155087544Y-103952452D01*
X154972335Y-103866206D01*
X154972328Y-103866202D01*
X154837482Y-103815908D01*
X154837483Y-103815908D01*
X154777883Y-103809501D01*
X154777881Y-103809500D01*
X154777873Y-103809500D01*
X154777864Y-103809500D01*
X152982129Y-103809500D01*
X152982123Y-103809501D01*
X152922516Y-103815908D01*
X152787671Y-103866202D01*
X152787664Y-103866206D01*
X152672455Y-103952452D01*
X152672452Y-103952455D01*
X152586206Y-104067664D01*
X152586204Y-104067668D01*
X152586204Y-104067669D01*
X152582039Y-104078834D01*
X152540171Y-104134766D01*
X152474707Y-104159184D01*
X152465859Y-104159500D01*
X144252264Y-104159500D01*
X144185225Y-104139815D01*
X144152997Y-104109810D01*
X144117550Y-104062458D01*
X144117547Y-104062455D01*
X144117546Y-104062454D01*
X144117542Y-104062451D01*
X144002335Y-103976206D01*
X144002328Y-103976202D01*
X143867482Y-103925908D01*
X143867483Y-103925908D01*
X143807883Y-103919501D01*
X143807881Y-103919500D01*
X143807873Y-103919500D01*
X143807864Y-103919500D01*
X142012129Y-103919500D01*
X142012123Y-103919501D01*
X141952516Y-103925908D01*
X141817671Y-103976202D01*
X141817664Y-103976206D01*
X141702455Y-104062452D01*
X141702452Y-104062455D01*
X141616206Y-104177664D01*
X141616204Y-104177668D01*
X141616204Y-104177669D01*
X141612039Y-104188834D01*
X141570171Y-104244766D01*
X141504707Y-104269184D01*
X141495859Y-104269500D01*
X138155783Y-104269500D01*
X138088744Y-104249815D01*
X138068102Y-104233181D01*
X136666818Y-102831897D01*
X136633333Y-102770574D01*
X136630499Y-102744216D01*
X136630499Y-101662129D01*
X136630498Y-101662123D01*
X136630497Y-101662116D01*
X136624091Y-101602517D01*
X136573796Y-101467669D01*
X136573795Y-101467668D01*
X136573793Y-101467664D01*
X136487547Y-101352455D01*
X136487544Y-101352452D01*
X136372335Y-101266206D01*
X136372328Y-101266202D01*
X136237482Y-101215908D01*
X136237483Y-101215908D01*
X136177883Y-101209501D01*
X136177881Y-101209500D01*
X136177873Y-101209500D01*
X136177864Y-101209500D01*
X134082129Y-101209500D01*
X134082123Y-101209501D01*
X134022516Y-101215908D01*
X133887671Y-101266202D01*
X133887664Y-101266206D01*
X133772455Y-101352452D01*
X133772452Y-101352455D01*
X133686206Y-101467664D01*
X133686202Y-101467671D01*
X133635908Y-101602517D01*
X133629501Y-101662116D01*
X133629501Y-101662123D01*
X133629500Y-101662135D01*
X133629500Y-103757870D01*
X133629501Y-103757876D01*
X133635908Y-103817483D01*
X133686202Y-103952328D01*
X133686206Y-103952335D01*
X133772452Y-104067544D01*
X133772455Y-104067547D01*
X133887664Y-104153793D01*
X133887671Y-104153797D01*
X134022517Y-104204091D01*
X134022516Y-104204091D01*
X134029444Y-104204835D01*
X134082127Y-104210500D01*
X135164217Y-104210499D01*
X135231256Y-104230184D01*
X135251898Y-104246818D01*
X137052219Y-106047140D01*
X137052218Y-106047140D01*
X137061025Y-106053024D01*
X137093043Y-106074417D01*
X137093045Y-106074419D01*
X137093046Y-106074419D01*
X137205518Y-106149571D01*
X137216086Y-106156632D01*
X137285134Y-106185232D01*
X137307123Y-106194340D01*
X137307124Y-106194341D01*
X137358148Y-106215476D01*
X137398165Y-106232052D01*
X137559389Y-106264121D01*
X137591457Y-106270499D01*
X137591458Y-106270500D01*
X137591459Y-106270500D01*
X137591460Y-106270500D01*
X137788540Y-106270500D01*
X141440943Y-106270500D01*
X141507982Y-106290185D01*
X141553737Y-106342989D01*
X141563681Y-106412147D01*
X141540209Y-106468810D01*
X141507100Y-106513038D01*
X141466204Y-106567668D01*
X141466202Y-106567671D01*
X141415908Y-106702517D01*
X141414126Y-106710062D01*
X141411853Y-106709525D01*
X141389571Y-106763312D01*
X141332177Y-106803157D01*
X141293024Y-106809500D01*
X134447475Y-106809500D01*
X134350832Y-106828724D01*
X134254187Y-106847947D01*
X134254181Y-106847949D01*
X134200854Y-106870037D01*
X134200854Y-106870038D01*
X134155335Y-106888892D01*
X134072109Y-106923366D01*
X134072099Y-106923371D01*
X133908239Y-107032859D01*
X133838560Y-107102538D01*
X133768881Y-107172218D01*
X128782230Y-112158869D01*
X128782227Y-112158870D01*
X128782228Y-112158871D01*
X128679906Y-112261192D01*
X128618583Y-112294676D01*
X128592226Y-112297510D01*
X128372140Y-112297510D01*
X128372133Y-112297511D01*
X128312526Y-112303918D01*
X128193343Y-112348371D01*
X128123651Y-112353355D01*
X128106677Y-112348371D01*
X127987492Y-112303918D01*
X127987493Y-112303918D01*
X127927893Y-112297511D01*
X127927891Y-112297510D01*
X127927883Y-112297510D01*
X127927874Y-112297510D01*
X125832139Y-112297510D01*
X125832133Y-112297511D01*
X125772526Y-112303918D01*
X125653343Y-112348371D01*
X125583651Y-112353355D01*
X125566677Y-112348371D01*
X125447492Y-112303918D01*
X125447493Y-112303918D01*
X125387893Y-112297511D01*
X125387891Y-112297510D01*
X125387883Y-112297510D01*
X125387874Y-112297510D01*
X123292139Y-112297510D01*
X123292133Y-112297511D01*
X123232526Y-112303918D01*
X123113343Y-112348371D01*
X123043651Y-112353355D01*
X123026677Y-112348371D01*
X122907492Y-112303918D01*
X122907493Y-112303918D01*
X122847893Y-112297511D01*
X122847891Y-112297510D01*
X122847883Y-112297510D01*
X122847874Y-112297510D01*
X120752139Y-112297510D01*
X120752133Y-112297511D01*
X120692526Y-112303918D01*
X120573343Y-112348371D01*
X120503651Y-112353355D01*
X120486677Y-112348371D01*
X120367492Y-112303918D01*
X120367493Y-112303918D01*
X120307893Y-112297511D01*
X120307891Y-112297510D01*
X120307883Y-112297510D01*
X120307874Y-112297510D01*
X118212139Y-112297510D01*
X118212133Y-112297511D01*
X118152526Y-112303918D01*
X118033343Y-112348371D01*
X117963651Y-112353355D01*
X117946677Y-112348371D01*
X117827492Y-112303918D01*
X117827493Y-112303918D01*
X117767893Y-112297511D01*
X117767891Y-112297510D01*
X117767883Y-112297510D01*
X117767874Y-112297510D01*
X115672139Y-112297510D01*
X115672133Y-112297511D01*
X115612526Y-112303918D01*
X115477681Y-112354212D01*
X115477674Y-112354216D01*
X115362465Y-112440462D01*
X115362462Y-112440465D01*
X115276216Y-112555674D01*
X115276212Y-112555681D01*
X115225918Y-112690527D01*
X115219511Y-112750126D01*
X115219511Y-112750133D01*
X115219510Y-112750145D01*
X115219510Y-114845880D01*
X115219511Y-114845886D01*
X115225918Y-114905493D01*
X115276212Y-115040338D01*
X115276216Y-115040345D01*
X115362462Y-115155554D01*
X115362465Y-115155557D01*
X115477674Y-115241803D01*
X115477681Y-115241807D01*
X115612527Y-115292101D01*
X115612526Y-115292101D01*
X115619454Y-115292845D01*
X115672137Y-115298510D01*
X117767882Y-115298509D01*
X117827493Y-115292101D01*
X117946677Y-115247647D01*
X118016368Y-115242664D01*
X118033339Y-115247646D01*
X118152527Y-115292101D01*
X118152526Y-115292101D01*
X118159454Y-115292845D01*
X118212137Y-115298510D01*
X120307882Y-115298509D01*
X120367493Y-115292101D01*
X120486677Y-115247647D01*
X120556368Y-115242664D01*
X120573339Y-115247646D01*
X120692527Y-115292101D01*
X120692526Y-115292101D01*
X120699454Y-115292845D01*
X120752137Y-115298510D01*
X122847882Y-115298509D01*
X122907493Y-115292101D01*
X123026677Y-115247647D01*
X123096368Y-115242664D01*
X123113339Y-115247646D01*
X123232527Y-115292101D01*
X123232526Y-115292101D01*
X123239454Y-115292845D01*
X123292137Y-115298510D01*
X125387882Y-115298509D01*
X125447493Y-115292101D01*
X125566677Y-115247647D01*
X125591906Y-115245843D01*
X125616515Y-115240001D01*
X125631140Y-115243037D01*
X125636368Y-115242664D01*
X125651138Y-115246849D01*
X125652218Y-115247228D01*
X125772527Y-115292101D01*
X125783073Y-115293234D01*
X125796638Y-115298004D01*
X125813783Y-115310339D01*
X125833297Y-115318418D01*
X125841574Y-115330334D01*
X125853354Y-115338810D01*
X125861108Y-115358457D01*
X125873157Y-115375803D01*
X125876784Y-115398174D01*
X125879005Y-115403801D01*
X125878285Y-115407435D01*
X125879510Y-115414985D01*
X125879510Y-115896551D01*
X125879510Y-115896553D01*
X125879509Y-115896553D01*
X125917957Y-116089839D01*
X125917960Y-116089849D01*
X125993374Y-116271917D01*
X125993381Y-116271930D01*
X126102869Y-116435790D01*
X126102870Y-116435791D01*
X126102871Y-116435792D01*
X126242228Y-116575149D01*
X126242229Y-116575149D01*
X126249296Y-116582216D01*
X126249295Y-116582216D01*
X126249299Y-116582219D01*
X126924897Y-117257819D01*
X126958382Y-117319142D01*
X126953398Y-117388834D01*
X126911526Y-117444767D01*
X126846062Y-117469184D01*
X126837216Y-117469500D01*
X103015782Y-117469500D01*
X102948743Y-117449815D01*
X102928101Y-117433181D01*
X100997087Y-115502167D01*
X100996697Y-115501453D01*
X100995987Y-115501054D01*
X100979970Y-115470820D01*
X100963602Y-115440844D01*
X100963660Y-115440032D01*
X100963279Y-115439313D01*
X100966147Y-115405248D01*
X100968586Y-115371152D01*
X100969073Y-115370500D01*
X100969142Y-115369690D01*
X100989977Y-115342576D01*
X101010458Y-115315219D01*
X101011384Y-115314720D01*
X101011716Y-115314289D01*
X101014962Y-115312796D01*
X101042904Y-115297767D01*
X101056654Y-115292835D01*
X101063483Y-115292101D01*
X101183394Y-115247377D01*
X101184136Y-115247111D01*
X101218249Y-115245103D01*
X101252358Y-115242664D01*
X101253583Y-115243023D01*
X101253885Y-115243006D01*
X101254280Y-115243228D01*
X101269329Y-115247646D01*
X101388517Y-115292101D01*
X101388516Y-115292101D01*
X101395444Y-115292845D01*
X101448127Y-115298510D01*
X103543872Y-115298509D01*
X103603483Y-115292101D01*
X103722668Y-115247647D01*
X103792357Y-115242664D01*
X103809332Y-115247648D01*
X103928518Y-115292101D01*
X103928517Y-115292101D01*
X103935445Y-115292845D01*
X103988128Y-115298510D01*
X106083873Y-115298509D01*
X106143484Y-115292101D01*
X106262669Y-115247647D01*
X106332357Y-115242664D01*
X106349332Y-115247648D01*
X106468517Y-115292101D01*
X106468516Y-115292101D01*
X106475444Y-115292845D01*
X106528127Y-115298510D01*
X108623872Y-115298509D01*
X108683483Y-115292101D01*
X108802667Y-115247647D01*
X108872358Y-115242664D01*
X108889329Y-115247646D01*
X109008517Y-115292101D01*
X109008516Y-115292101D01*
X109015444Y-115292845D01*
X109068127Y-115298510D01*
X111163872Y-115298509D01*
X111223483Y-115292101D01*
X111342667Y-115247647D01*
X111412358Y-115242664D01*
X111429329Y-115247646D01*
X111548517Y-115292101D01*
X111548516Y-115292101D01*
X111555444Y-115292845D01*
X111608127Y-115298510D01*
X113703872Y-115298509D01*
X113763483Y-115292101D01*
X113898331Y-115241806D01*
X114013546Y-115155556D01*
X114099796Y-115040341D01*
X114150091Y-114905493D01*
X114156500Y-114845883D01*
X114156499Y-112750138D01*
X114150091Y-112690527D01*
X114099796Y-112555679D01*
X114099795Y-112555678D01*
X114099793Y-112555674D01*
X114013547Y-112440465D01*
X114013544Y-112440462D01*
X113898335Y-112354216D01*
X113898328Y-112354212D01*
X113763482Y-112303918D01*
X113763483Y-112303918D01*
X113703883Y-112297511D01*
X113703881Y-112297510D01*
X113703873Y-112297510D01*
X113703864Y-112297510D01*
X111608129Y-112297510D01*
X111608123Y-112297511D01*
X111548516Y-112303918D01*
X111429333Y-112348371D01*
X111402974Y-112350256D01*
X111377154Y-112355873D01*
X111364109Y-112353035D01*
X111359641Y-112353355D01*
X111342667Y-112348371D01*
X111259710Y-112317430D01*
X111203776Y-112275559D01*
X111179359Y-112210095D01*
X111194211Y-112141822D01*
X111215359Y-112113570D01*
X122762111Y-100566819D01*
X122823434Y-100533334D01*
X122849792Y-100530500D01*
X150078543Y-100530500D01*
X150208582Y-100504632D01*
X150271835Y-100492051D01*
X150453914Y-100416632D01*
X150617782Y-100307139D01*
X150757139Y-100167782D01*
X150866632Y-100003914D01*
X150874143Y-99985782D01*
X150942049Y-99821839D01*
X150942051Y-99821835D01*
X150980500Y-99628541D01*
X150980500Y-97976975D01*
X151000185Y-97909937D01*
X151052989Y-97864182D01*
X151063371Y-97859996D01*
X151076943Y-97855223D01*
X151087483Y-97854091D01*
X151207760Y-97809230D01*
X151208871Y-97808840D01*
X151242620Y-97807066D01*
X151276358Y-97804654D01*
X151278207Y-97805196D01*
X151278645Y-97805174D01*
X151279191Y-97805485D01*
X151293329Y-97809636D01*
X151412517Y-97854091D01*
X151412516Y-97854091D01*
X151419444Y-97854835D01*
X151472127Y-97860500D01*
X153567872Y-97860499D01*
X153627483Y-97854091D01*
X153762331Y-97803796D01*
X153877546Y-97717546D01*
X153963796Y-97602331D01*
X154014091Y-97467483D01*
X154020500Y-97407873D01*
X154020499Y-95312128D01*
X154014091Y-95252517D01*
X153963796Y-95117669D01*
X153963795Y-95117668D01*
X153963793Y-95117664D01*
X153877547Y-95002455D01*
X153877544Y-95002452D01*
X153762335Y-94916206D01*
X153762328Y-94916202D01*
X153627482Y-94865908D01*
X153627483Y-94865908D01*
X153567883Y-94859501D01*
X153567881Y-94859500D01*
X153567873Y-94859500D01*
X153567864Y-94859500D01*
X151472129Y-94859500D01*
X151472123Y-94859501D01*
X151412516Y-94865908D01*
X151293333Y-94910361D01*
X151223641Y-94915345D01*
X151206667Y-94910361D01*
X151087482Y-94865908D01*
X151087483Y-94865908D01*
X151027883Y-94859501D01*
X151027881Y-94859500D01*
X151027873Y-94859500D01*
X151027864Y-94859500D01*
X148932129Y-94859500D01*
X148932123Y-94859501D01*
X148872516Y-94865908D01*
X148753333Y-94910361D01*
X148683641Y-94915345D01*
X148666667Y-94910361D01*
X148547482Y-94865908D01*
X148547483Y-94865908D01*
X148487883Y-94859501D01*
X148487881Y-94859500D01*
X148487873Y-94859500D01*
X148487865Y-94859500D01*
X146704781Y-94859500D01*
X146637742Y-94839815D01*
X146591987Y-94787011D01*
X146582043Y-94717853D01*
X146611068Y-94654297D01*
X146617100Y-94647819D01*
X147509218Y-93755703D01*
X147838102Y-93426819D01*
X147899425Y-93393334D01*
X147925783Y-93390500D01*
X155464218Y-93390500D01*
X155531257Y-93410185D01*
X155551899Y-93426819D01*
X162023181Y-99898101D01*
X162056666Y-99959424D01*
X162059500Y-99985782D01*
X162059500Y-106053023D01*
X162039815Y-106120062D01*
X161987011Y-106165817D01*
X161959865Y-106173266D01*
X161960068Y-106174124D01*
X161952520Y-106175907D01*
X161817671Y-106226202D01*
X161817664Y-106226206D01*
X161702455Y-106312452D01*
X161702452Y-106312455D01*
X161616206Y-106427664D01*
X161616202Y-106427671D01*
X161565908Y-106562517D01*
X161559501Y-106622116D01*
X161559501Y-106622123D01*
X161559500Y-106622135D01*
X161559500Y-108717870D01*
X161559501Y-108717876D01*
X161565908Y-108777483D01*
X161616202Y-108912328D01*
X161616206Y-108912335D01*
X161702452Y-109027544D01*
X161702455Y-109027547D01*
X161817664Y-109113793D01*
X161817671Y-109113797D01*
X161952517Y-109164091D01*
X161952516Y-109164091D01*
X161959444Y-109164835D01*
X162012127Y-109170500D01*
X164107872Y-109170499D01*
X164167483Y-109164091D01*
X164302331Y-109113796D01*
X164417546Y-109027546D01*
X164503796Y-108912331D01*
X164554091Y-108777483D01*
X164560500Y-108717873D01*
X164560499Y-106622128D01*
X164554091Y-106562517D01*
X164519141Y-106468812D01*
X164503797Y-106427671D01*
X164503793Y-106427664D01*
X164417547Y-106312455D01*
X164417544Y-106312452D01*
X164302335Y-106226206D01*
X164302328Y-106226202D01*
X164167482Y-106175908D01*
X164159938Y-106174126D01*
X164160474Y-106171853D01*
X164106688Y-106149571D01*
X164066843Y-106092177D01*
X164060500Y-106053024D01*
X164060500Y-99421458D01*
X164060499Y-99421457D01*
X164054121Y-99389389D01*
X164022052Y-99228165D01*
X163946632Y-99046086D01*
X163946631Y-99046085D01*
X163946628Y-99046079D01*
X163837140Y-98882219D01*
X163837137Y-98882215D01*
X156714209Y-91759289D01*
X156714206Y-91759285D01*
X156714206Y-91759286D01*
X156707139Y-91752219D01*
X156707139Y-91752218D01*
X156567782Y-91612861D01*
X156567781Y-91612860D01*
X156567780Y-91612859D01*
X156403920Y-91503371D01*
X156403907Y-91503364D01*
X156264762Y-91445729D01*
X156264757Y-91445727D01*
X156257006Y-91442517D01*
X156221836Y-91427949D01*
X156125188Y-91408724D01*
X156121466Y-91407983D01*
X156121456Y-91407981D01*
X156028544Y-91389500D01*
X156028541Y-91389500D01*
X147564675Y-91389500D01*
X147564655Y-91389499D01*
X147558541Y-91389499D01*
X147361460Y-91389499D01*
X147361457Y-91389499D01*
X147168172Y-91427946D01*
X147168164Y-91427948D01*
X146986088Y-91503366D01*
X146986079Y-91503371D01*
X146822219Y-91612859D01*
X146822215Y-91612862D01*
X144812899Y-93622181D01*
X144751576Y-93655666D01*
X144725218Y-93658500D01*
X136754500Y-93658500D01*
X136687461Y-93638815D01*
X136641706Y-93586011D01*
X136630500Y-93534500D01*
X136630499Y-91502129D01*
X136630498Y-91502123D01*
X136624091Y-91442516D01*
X136573797Y-91307671D01*
X136573793Y-91307664D01*
X136487547Y-91192455D01*
X136487544Y-91192452D01*
X136372335Y-91106206D01*
X136372328Y-91106202D01*
X136237482Y-91055908D01*
X136237483Y-91055908D01*
X136177883Y-91049501D01*
X136177881Y-91049500D01*
X136177873Y-91049500D01*
X136177864Y-91049500D01*
X134082129Y-91049500D01*
X134082123Y-91049501D01*
X134022516Y-91055908D01*
X133887671Y-91106202D01*
X133887664Y-91106206D01*
X133772455Y-91192452D01*
X133772452Y-91192455D01*
X133686206Y-91307664D01*
X133686202Y-91307671D01*
X133635908Y-91442517D01*
X133634126Y-91450062D01*
X133631853Y-91449525D01*
X133609571Y-91503312D01*
X133552177Y-91543157D01*
X133513024Y-91549500D01*
X112925783Y-91549500D01*
X112858744Y-91529815D01*
X112838102Y-91513181D01*
X110136819Y-88811898D01*
X110103334Y-88750575D01*
X110100500Y-88724217D01*
X110100500Y-77532135D01*
X143678900Y-77532135D01*
X143678900Y-79627870D01*
X143678901Y-79627876D01*
X143685308Y-79687483D01*
X143735602Y-79822328D01*
X143735606Y-79822335D01*
X143821852Y-79937544D01*
X143821855Y-79937547D01*
X143937064Y-80023793D01*
X143937071Y-80023797D01*
X144071917Y-80074091D01*
X144071916Y-80074091D01*
X144078844Y-80074835D01*
X144131527Y-80080500D01*
X146227272Y-80080499D01*
X146286883Y-80074091D01*
X146421731Y-80023796D01*
X146536946Y-79937546D01*
X146623196Y-79822331D01*
X146673491Y-79687483D01*
X146679900Y-79627873D01*
X146679899Y-78263437D01*
X146699584Y-78196400D01*
X146752387Y-78150645D01*
X146821546Y-78140701D01*
X146885102Y-78169726D01*
X146907001Y-78194548D01*
X146952859Y-78263180D01*
X146952860Y-78263181D01*
X146952861Y-78263182D01*
X147092218Y-78402539D01*
X147092219Y-78402539D01*
X147099286Y-78409606D01*
X147099285Y-78409606D01*
X147099289Y-78409609D01*
X147147781Y-78458101D01*
X147181266Y-78519424D01*
X147184100Y-78545782D01*
X147184100Y-79627870D01*
X147184101Y-79627876D01*
X147190508Y-79687483D01*
X147240802Y-79822328D01*
X147240806Y-79822335D01*
X147327052Y-79937544D01*
X147327055Y-79937547D01*
X147442264Y-80023793D01*
X147442271Y-80023797D01*
X147577117Y-80074091D01*
X147577116Y-80074091D01*
X147584044Y-80074835D01*
X147636727Y-80080500D01*
X149732472Y-80080499D01*
X149792083Y-80074091D01*
X149926931Y-80023796D01*
X150042146Y-79937546D01*
X150128396Y-79822331D01*
X150178691Y-79687483D01*
X150185100Y-79627873D01*
X150185099Y-77532135D01*
X152314900Y-77532135D01*
X152314900Y-79627870D01*
X152314901Y-79627876D01*
X152321308Y-79687483D01*
X152371602Y-79822328D01*
X152371606Y-79822335D01*
X152457852Y-79937544D01*
X152457855Y-79937547D01*
X152573064Y-80023793D01*
X152573071Y-80023797D01*
X152707917Y-80074091D01*
X152707916Y-80074091D01*
X152714844Y-80074835D01*
X152767527Y-80080500D01*
X154863272Y-80080499D01*
X154922883Y-80074091D01*
X155057731Y-80023796D01*
X155172946Y-79937546D01*
X155259196Y-79822331D01*
X155309491Y-79687483D01*
X155315900Y-79627873D01*
X155315899Y-77532128D01*
X155309491Y-77472517D01*
X155259197Y-77337671D01*
X155259197Y-77337670D01*
X155255670Y-77331212D01*
X155240500Y-77271781D01*
X155240500Y-73286976D01*
X155260185Y-73219937D01*
X155312989Y-73174182D01*
X155340135Y-73166736D01*
X155339932Y-73165876D01*
X155347479Y-73164092D01*
X155347481Y-73164091D01*
X155347483Y-73164091D01*
X155482331Y-73113796D01*
X155597546Y-73027546D01*
X155683796Y-72912331D01*
X155734091Y-72777483D01*
X155740500Y-72717873D01*
X155740499Y-70622128D01*
X155734091Y-70562517D01*
X155707959Y-70492454D01*
X155683797Y-70427671D01*
X155683793Y-70427664D01*
X155597547Y-70312455D01*
X155597544Y-70312452D01*
X155482335Y-70226206D01*
X155482328Y-70226202D01*
X155347482Y-70175908D01*
X155347483Y-70175908D01*
X155287883Y-70169501D01*
X155287881Y-70169500D01*
X155287873Y-70169500D01*
X155287864Y-70169500D01*
X153192129Y-70169500D01*
X153192123Y-70169501D01*
X153132516Y-70175908D01*
X152997671Y-70226202D01*
X152997664Y-70226206D01*
X152882455Y-70312452D01*
X152882452Y-70312455D01*
X152796206Y-70427664D01*
X152796202Y-70427671D01*
X152745908Y-70562517D01*
X152741055Y-70607664D01*
X152739501Y-70622123D01*
X152739500Y-70622135D01*
X152739500Y-72717870D01*
X152739501Y-72717876D01*
X152745908Y-72777483D01*
X152796202Y-72912328D01*
X152796206Y-72912335D01*
X152882452Y-73027544D01*
X152882455Y-73027547D01*
X152997664Y-73113793D01*
X152997671Y-73113797D01*
X153132517Y-73164091D01*
X153140062Y-73165874D01*
X153139523Y-73168151D01*
X153193287Y-73190408D01*
X153233147Y-73247793D01*
X153239500Y-73286975D01*
X153239500Y-76955500D01*
X153219815Y-77022539D01*
X153167011Y-77068294D01*
X153115500Y-77079500D01*
X152767530Y-77079500D01*
X152767523Y-77079501D01*
X152707916Y-77085908D01*
X152573071Y-77136202D01*
X152573064Y-77136206D01*
X152457855Y-77222452D01*
X152457852Y-77222455D01*
X152371606Y-77337664D01*
X152371602Y-77337671D01*
X152321308Y-77472517D01*
X152315466Y-77526860D01*
X152314901Y-77532123D01*
X152314900Y-77532135D01*
X150185099Y-77532135D01*
X150185099Y-77532128D01*
X150178691Y-77472517D01*
X150128396Y-77337669D01*
X150128395Y-77337668D01*
X150128393Y-77337664D01*
X150042147Y-77222455D01*
X150042144Y-77222452D01*
X149926935Y-77136206D01*
X149926928Y-77136202D01*
X149792082Y-77085908D01*
X149792083Y-77085908D01*
X149732483Y-77079501D01*
X149732481Y-77079500D01*
X149732473Y-77079500D01*
X149732465Y-77079500D01*
X148854500Y-77079500D01*
X148787461Y-77059815D01*
X148741706Y-77007011D01*
X148730500Y-76955500D01*
X148730500Y-73114141D01*
X148750185Y-73047102D01*
X148802989Y-73001347D01*
X148811149Y-72997966D01*
X148822331Y-72993796D01*
X148937546Y-72907546D01*
X149023796Y-72792331D01*
X149074091Y-72657483D01*
X149080500Y-72597873D01*
X149080499Y-70802128D01*
X149074091Y-70742517D01*
X149029191Y-70622135D01*
X149023797Y-70607671D01*
X149023793Y-70607664D01*
X148937547Y-70492455D01*
X148937544Y-70492452D01*
X148822335Y-70406206D01*
X148822328Y-70406202D01*
X148687482Y-70355908D01*
X148687483Y-70355908D01*
X148627883Y-70349501D01*
X148627881Y-70349500D01*
X148627873Y-70349500D01*
X148627864Y-70349500D01*
X146832129Y-70349500D01*
X146832123Y-70349501D01*
X146772516Y-70355908D01*
X146691495Y-70386128D01*
X146621803Y-70391112D01*
X146560480Y-70357627D01*
X146548900Y-70344263D01*
X146547546Y-70342454D01*
X146432331Y-70256204D01*
X146432329Y-70256203D01*
X146432328Y-70256202D01*
X146297482Y-70205908D01*
X146297483Y-70205908D01*
X146237883Y-70199501D01*
X146237881Y-70199500D01*
X146237873Y-70199500D01*
X146237864Y-70199500D01*
X144142129Y-70199500D01*
X144142123Y-70199501D01*
X144082516Y-70205908D01*
X143947671Y-70256202D01*
X143947664Y-70256206D01*
X143832455Y-70342452D01*
X143832452Y-70342455D01*
X143746206Y-70457664D01*
X143746202Y-70457671D01*
X143695908Y-70592517D01*
X143689501Y-70652116D01*
X143689500Y-70652135D01*
X143689500Y-72747870D01*
X143689501Y-72747876D01*
X143695908Y-72807483D01*
X143746202Y-72942328D01*
X143746206Y-72942335D01*
X143832452Y-73057544D01*
X143832455Y-73057547D01*
X143947664Y-73143793D01*
X143947671Y-73143797D01*
X144082517Y-73194091D01*
X144090062Y-73195874D01*
X144089523Y-73198151D01*
X144143287Y-73220408D01*
X144183147Y-73277793D01*
X144189500Y-73316975D01*
X144189500Y-76961884D01*
X144169815Y-77028923D01*
X144117011Y-77074678D01*
X144078753Y-77085174D01*
X144071916Y-77085908D01*
X143937071Y-77136202D01*
X143937064Y-77136206D01*
X143821855Y-77222452D01*
X143821852Y-77222455D01*
X143735606Y-77337664D01*
X143735602Y-77337671D01*
X143685308Y-77472517D01*
X143679466Y-77526860D01*
X143678901Y-77532123D01*
X143678900Y-77532135D01*
X110100500Y-77532135D01*
X110100500Y-67154986D01*
X110120185Y-67087947D01*
X110172989Y-67042192D01*
X110200135Y-67034746D01*
X110199932Y-67033886D01*
X110207479Y-67032102D01*
X110207481Y-67032101D01*
X110207483Y-67032101D01*
X110342331Y-66981806D01*
X110457546Y-66895556D01*
X110543796Y-66780341D01*
X110594091Y-66645493D01*
X110600500Y-66585883D01*
X110600499Y-64490145D01*
X112679500Y-64490145D01*
X112679500Y-66585880D01*
X112679501Y-66585886D01*
X112685908Y-66645493D01*
X112736202Y-66780338D01*
X112736206Y-66780345D01*
X112822452Y-66895554D01*
X112822455Y-66895557D01*
X112937664Y-66981803D01*
X112937671Y-66981807D01*
X113072517Y-67032101D01*
X113072516Y-67032101D01*
X113079444Y-67032845D01*
X113132127Y-67038510D01*
X115227872Y-67038509D01*
X115287483Y-67032101D01*
X115406673Y-66987645D01*
X115476363Y-66982662D01*
X115493328Y-66987643D01*
X115612527Y-67032101D01*
X115672137Y-67038510D01*
X117767882Y-67038509D01*
X117827493Y-67032101D01*
X117962341Y-66981806D01*
X118077556Y-66895556D01*
X118163806Y-66780341D01*
X118214101Y-66645493D01*
X118220510Y-66585883D01*
X118220509Y-64490145D01*
X120299510Y-64490145D01*
X120299510Y-66585880D01*
X120299511Y-66585886D01*
X120305918Y-66645493D01*
X120356212Y-66780338D01*
X120356216Y-66780345D01*
X120442462Y-66895554D01*
X120442465Y-66895557D01*
X120557674Y-66981803D01*
X120557681Y-66981807D01*
X120692527Y-67032101D01*
X120692526Y-67032101D01*
X120699454Y-67032845D01*
X120752137Y-67038510D01*
X122847882Y-67038509D01*
X122907493Y-67032101D01*
X123026677Y-66987647D01*
X123096368Y-66982664D01*
X123113339Y-66987646D01*
X123232527Y-67032101D01*
X123232526Y-67032101D01*
X123239454Y-67032845D01*
X123292137Y-67038510D01*
X125387882Y-67038509D01*
X125447493Y-67032101D01*
X125566677Y-66987647D01*
X125636368Y-66982664D01*
X125653339Y-66987646D01*
X125772527Y-67032101D01*
X125772526Y-67032101D01*
X125779454Y-67032845D01*
X125832137Y-67038510D01*
X127927882Y-67038509D01*
X127987493Y-67032101D01*
X128106677Y-66987647D01*
X128176368Y-66982664D01*
X128193339Y-66987646D01*
X128312527Y-67032101D01*
X128312526Y-67032101D01*
X128319454Y-67032845D01*
X128372137Y-67038510D01*
X130467882Y-67038509D01*
X130527493Y-67032101D01*
X130646677Y-66987647D01*
X130716368Y-66982664D01*
X130733339Y-66987646D01*
X130852527Y-67032101D01*
X130852526Y-67032101D01*
X130859454Y-67032845D01*
X130912137Y-67038510D01*
X133007882Y-67038509D01*
X133067493Y-67032101D01*
X133186677Y-66987647D01*
X133256368Y-66982664D01*
X133273339Y-66987646D01*
X133392527Y-67032101D01*
X133392526Y-67032101D01*
X133399454Y-67032845D01*
X133452137Y-67038510D01*
X135547882Y-67038509D01*
X135607493Y-67032101D01*
X135742341Y-66981806D01*
X135857556Y-66895556D01*
X135943806Y-66780341D01*
X135994101Y-66645493D01*
X136000510Y-66585883D01*
X136000509Y-64490138D01*
X135994101Y-64430527D01*
X135943806Y-64295679D01*
X135943805Y-64295678D01*
X135943803Y-64295674D01*
X135857557Y-64180465D01*
X135857554Y-64180462D01*
X135742345Y-64094216D01*
X135742338Y-64094212D01*
X135607492Y-64043918D01*
X135607493Y-64043918D01*
X135547893Y-64037511D01*
X135547891Y-64037510D01*
X135547883Y-64037510D01*
X135547874Y-64037510D01*
X133452139Y-64037510D01*
X133452133Y-64037511D01*
X133392526Y-64043918D01*
X133273343Y-64088371D01*
X133203651Y-64093355D01*
X133186677Y-64088371D01*
X133067492Y-64043918D01*
X133067493Y-64043918D01*
X133007893Y-64037511D01*
X133007891Y-64037510D01*
X133007883Y-64037510D01*
X133007874Y-64037510D01*
X130912139Y-64037510D01*
X130912133Y-64037511D01*
X130852526Y-64043918D01*
X130733343Y-64088371D01*
X130663651Y-64093355D01*
X130646677Y-64088371D01*
X130527492Y-64043918D01*
X130527493Y-64043918D01*
X130467893Y-64037511D01*
X130467891Y-64037510D01*
X130467883Y-64037510D01*
X130467874Y-64037510D01*
X128372139Y-64037510D01*
X128372133Y-64037511D01*
X128312526Y-64043918D01*
X128193343Y-64088371D01*
X128123651Y-64093355D01*
X128106677Y-64088371D01*
X127987492Y-64043918D01*
X127987493Y-64043918D01*
X127927893Y-64037511D01*
X127927891Y-64037510D01*
X127927883Y-64037510D01*
X127927874Y-64037510D01*
X125832139Y-64037510D01*
X125832133Y-64037511D01*
X125772526Y-64043918D01*
X125653343Y-64088371D01*
X125583651Y-64093355D01*
X125566677Y-64088371D01*
X125447492Y-64043918D01*
X125447493Y-64043918D01*
X125387893Y-64037511D01*
X125387891Y-64037510D01*
X125387883Y-64037510D01*
X125387874Y-64037510D01*
X123292139Y-64037510D01*
X123292133Y-64037511D01*
X123232526Y-64043918D01*
X123113343Y-64088371D01*
X123043651Y-64093355D01*
X123026677Y-64088371D01*
X122907492Y-64043918D01*
X122907493Y-64043918D01*
X122847893Y-64037511D01*
X122847891Y-64037510D01*
X122847883Y-64037510D01*
X122847874Y-64037510D01*
X120752139Y-64037510D01*
X120752133Y-64037511D01*
X120692526Y-64043918D01*
X120557681Y-64094212D01*
X120557674Y-64094216D01*
X120442465Y-64180462D01*
X120442462Y-64180465D01*
X120356216Y-64295674D01*
X120356212Y-64295681D01*
X120305918Y-64430527D01*
X120299511Y-64490126D01*
X120299511Y-64490133D01*
X120299510Y-64490145D01*
X118220509Y-64490145D01*
X118220509Y-64490138D01*
X118214101Y-64430527D01*
X118163806Y-64295679D01*
X118163805Y-64295678D01*
X118163803Y-64295674D01*
X118077557Y-64180465D01*
X118077554Y-64180462D01*
X117962345Y-64094216D01*
X117962338Y-64094212D01*
X117827492Y-64043918D01*
X117827493Y-64043918D01*
X117767893Y-64037511D01*
X117767891Y-64037510D01*
X117767883Y-64037510D01*
X117767874Y-64037510D01*
X115672139Y-64037510D01*
X115672133Y-64037511D01*
X115612526Y-64043918D01*
X115493338Y-64088373D01*
X115423646Y-64093357D01*
X115406672Y-64088373D01*
X115287482Y-64043918D01*
X115287483Y-64043918D01*
X115227883Y-64037511D01*
X115227881Y-64037510D01*
X115227873Y-64037510D01*
X115227864Y-64037510D01*
X113132129Y-64037510D01*
X113132123Y-64037511D01*
X113072516Y-64043918D01*
X112937671Y-64094212D01*
X112937664Y-64094216D01*
X112822455Y-64180462D01*
X112822452Y-64180465D01*
X112736206Y-64295674D01*
X112736202Y-64295681D01*
X112685908Y-64430527D01*
X112679501Y-64490126D01*
X112679501Y-64490133D01*
X112679500Y-64490145D01*
X110600499Y-64490145D01*
X110600499Y-64490138D01*
X110594091Y-64430527D01*
X110543796Y-64295679D01*
X110543795Y-64295678D01*
X110543793Y-64295674D01*
X110457547Y-64180465D01*
X110457544Y-64180462D01*
X110342335Y-64094216D01*
X110342328Y-64094212D01*
X110207482Y-64043918D01*
X110207483Y-64043918D01*
X110147883Y-64037511D01*
X110147881Y-64037510D01*
X110147873Y-64037510D01*
X110147864Y-64037510D01*
X108052129Y-64037510D01*
X108052123Y-64037511D01*
X107992516Y-64043918D01*
X107873333Y-64088371D01*
X107803641Y-64093355D01*
X107786667Y-64088371D01*
X107667482Y-64043918D01*
X107667483Y-64043918D01*
X107607883Y-64037511D01*
X107607881Y-64037510D01*
X107607873Y-64037510D01*
X107607864Y-64037510D01*
X105512129Y-64037510D01*
X105512123Y-64037511D01*
X105452516Y-64043918D01*
X105333333Y-64088371D01*
X105263641Y-64093355D01*
X105246667Y-64088371D01*
X105127482Y-64043918D01*
X105127483Y-64043918D01*
X105067883Y-64037511D01*
X105067881Y-64037510D01*
X105067873Y-64037510D01*
X105067864Y-64037510D01*
X102972129Y-64037510D01*
X102972123Y-64037511D01*
X102912516Y-64043918D01*
X102793333Y-64088371D01*
X102723641Y-64093355D01*
X102706667Y-64088371D01*
X102587482Y-64043918D01*
X102587483Y-64043918D01*
X102527883Y-64037511D01*
X102527881Y-64037510D01*
X102527873Y-64037510D01*
X102527864Y-64037510D01*
X100432129Y-64037510D01*
X100432123Y-64037511D01*
X100372516Y-64043918D01*
X100253333Y-64088371D01*
X100183641Y-64093355D01*
X100166667Y-64088371D01*
X100047482Y-64043918D01*
X100047483Y-64043918D01*
X99987883Y-64037511D01*
X99987881Y-64037510D01*
X99987873Y-64037510D01*
X99987864Y-64037510D01*
X97892129Y-64037510D01*
X97892123Y-64037511D01*
X97832516Y-64043918D01*
X97697671Y-64094212D01*
X97697664Y-64094216D01*
X97582455Y-64180462D01*
X97582452Y-64180465D01*
X97496206Y-64295674D01*
X97496202Y-64295681D01*
X97445908Y-64430527D01*
X97439501Y-64490126D01*
X97439501Y-64490133D01*
X97439500Y-64490145D01*
X85700500Y-64490145D01*
X85700500Y-63264500D01*
X85720185Y-63197461D01*
X85772989Y-63151706D01*
X85824500Y-63140500D01*
X165585500Y-63140500D01*
X165652539Y-63160185D01*
G37*
%TD.AperFunction*%
%TD*%
M02*
