M48
; DRILL file {KiCad 9.0.7-9.0.7~ubuntu24.04.1} date 2026-03-16T11:18:00-0600
; FORMAT={-:-/ absolute / metric / decimal}
; #@! TF.CreationDate,2026-03-16T11:18:00-06:00
; #@! TF.GenerationSoftware,Kicad,Pcbnew,9.0.7-9.0.7~ubuntu24.04.1
; #@! TF.FileFunction,Plated,1,2,PTH
FMAT,2
METRIC
; #@! TA.AperFunction,Plated,PTH,ComponentDrill
T1C0.700
; #@! TA.AperFunction,Plated,PTH,ComponentDrill
T2C1.000
; #@! TA.AperFunction,Plated,PTH,ComponentDrill
T3C1.016
%
G90
G05
T1
X150.31Y-60.96
X155.39Y-60.96
X156.93Y-110.4
X162.01Y-110.4
X189.225Y-64.13
X189.225Y-66.67
T2
X178.71Y-79.49
X178.72Y-76.42
X189.225Y-69.21
X189.225Y-71.75
X193.464Y-100.167
X193.75Y-107.23
X193.95Y-79.49
X193.96Y-76.42
X195.615Y-64.24
X195.615Y-66.78
X195.615Y-69.32
X195.615Y-71.86
X195.725Y-82.387
X196.29Y-107.23
X196.97Y-100.167
X198.265Y-82.387
X200.805Y-82.387
X202.1Y-100.167
X203.0Y-107.05
X203.345Y-82.387
X205.54Y-107.05
X205.606Y-100.167
T3
X137.578Y-65.497
X140.118Y-65.497
X142.658Y-65.497
X145.198Y-65.497
X146.722Y-113.757
X147.738Y-65.497
X149.262Y-113.757
X150.278Y-65.497
X151.802Y-113.757
X152.818Y-65.497
X154.342Y-113.757
X155.358Y-65.497
X156.882Y-113.757
X157.898Y-65.497
X159.422Y-113.757
X160.438Y-65.497
X161.962Y-113.757
X164.502Y-65.497
X164.502Y-113.757
X167.042Y-65.497
X169.582Y-65.497
X169.582Y-113.757
X172.122Y-65.497
X172.122Y-113.757
X174.662Y-65.497
X174.662Y-113.757
X177.202Y-65.497
X177.202Y-113.757
X179.742Y-65.497
X179.742Y-113.757
X182.282Y-65.497
X182.282Y-113.757
M30
