M48
; DRILL file {KiCad 9.0.7-9.0.7~ubuntu24.04.1} date 2026-03-04T16:00:30-0700
; FORMAT={-:-/ absolute / metric / decimal}
; #@! TF.CreationDate,2026-03-04T16:00:30-07:00
; #@! TF.GenerationSoftware,Kicad,Pcbnew,9.0.7-9.0.7~ubuntu24.04.1
; #@! TF.FileFunction,Plated,1,2,PTH
FMAT,2
METRIC
; #@! TA.AperFunction,Plated,PTH,ComponentDrill
T1C0.700
; #@! TA.AperFunction,Plated,PTH,ComponentDrill
T2C1.000
; #@! TA.AperFunction,Plated,PTH,ComponentDrill
T3C1.016
%
G90
G05
T1
X156.76Y-72.83
X156.76Y-77.91
X163.02Y-90.79
X163.02Y-95.87
T2
X109.609Y-97.34
X111.87Y-115.12
X113.115Y-97.34
X114.41Y-115.12
X114.925Y-84.707
X114.925Y-87.247
X115.065Y-71.487
X115.065Y-74.027
X116.95Y-115.12
X118.245Y-97.34
X119.49Y-115.12
X121.751Y-97.34
X185.38Y-91.1
X185.38Y-93.64
X185.38Y-96.18
X185.38Y-98.72
X185.93Y-109.14
X185.93Y-111.68
X185.93Y-114.22
X185.93Y-116.76
T3
X128.94Y-83.32
X128.94Y-85.86
X128.94Y-88.4
X128.94Y-90.94
X128.94Y-93.48
X128.94Y-96.02
X128.94Y-98.56
X128.94Y-101.1
X128.94Y-106.18
X128.94Y-108.72
X128.94Y-111.26
X128.94Y-113.8
X128.94Y-116.34
X128.94Y-118.88
X177.2Y-74.176
X177.2Y-76.716
X177.2Y-79.256
X177.2Y-81.796
X177.2Y-84.336
X177.2Y-86.876
X177.2Y-89.416
X177.2Y-91.956
X177.2Y-94.496
X177.2Y-97.036
X177.2Y-101.1
X177.2Y-103.64
X177.2Y-106.18
X177.2Y-108.72
X177.2Y-111.26
X177.2Y-113.8
X177.2Y-116.34
X177.2Y-118.88
M30
