M48
; DRILL file {KiCad 9.0.6} date 2025-12-21T01:05:29-0700
; FORMAT={-:-/ absolute / metric / decimal}
; #@! TF.CreationDate,2025-12-21T01:05:29-07:00
; #@! TF.GenerationSoftware,Kicad,Pcbnew,9.0.6
; #@! TF.FileFunction,Plated,1,2,PTH
FMAT,2
METRIC
; #@! TA.AperFunction,Plated,PTH,ComponentDrill
T1C0.800
; #@! TA.AperFunction,Plated,PTH,ComponentDrill
T2C1.000
; #@! TA.AperFunction,Plated,PTH,ComponentDrill
T3C1.016
%
G90
G05
T1
X38.0Y-146.42
X38.0Y-156.58
X43.667Y-146.42
X43.667Y-156.58
X49.333Y-146.42
X49.333Y-156.58
X55.0Y-146.42
X55.0Y-156.58
T2
X35.035Y-160.459
X37.46Y-116.0
X37.575Y-160.459
X37.929Y-122.0
X40.0Y-116.0
X40.19Y-139.78
X41.135Y-160.459
X41.435Y-122.0
X42.73Y-139.78
X43.675Y-160.459
X45.27Y-139.78
X46.565Y-122.0
X47.235Y-160.459
X47.5Y-116.0
X47.81Y-139.78
X49.775Y-160.459
X50.071Y-122.0
X53.335Y-160.459
X53.5Y-116.0
X55.875Y-160.459
X113.38Y-114.906
X115.92Y-114.906
X118.46Y-114.906
X121.0Y-114.906
T3
X60.478Y-123.194
X60.478Y-125.734
X60.478Y-128.274
X60.478Y-130.814
X60.478Y-133.354
X60.478Y-135.894
X60.478Y-138.434
X60.478Y-140.974
X60.478Y-146.054
X60.478Y-148.594
X60.478Y-151.134
X60.478Y-153.674
X60.478Y-156.214
X60.478Y-158.754
X108.738Y-114.05
X108.738Y-116.59
X108.738Y-119.13
X108.738Y-121.67
X108.738Y-124.21
X108.738Y-126.75
X108.738Y-129.29
X108.738Y-131.83
X108.738Y-134.37
X108.738Y-136.91
X108.738Y-140.974
X108.738Y-143.514
X108.738Y-146.054
X108.738Y-148.594
X108.738Y-151.134
X108.738Y-153.674
X108.738Y-156.214
X108.738Y-158.754
M30
